<?xml version="1.0" encoding="UTF-8" standalone="no"?><!DOCTYPE svg PUBLIC "-//W3C//DTD SVG 1.1//EN" "http://www.w3.org/Graphics/SVG/1.1/DTD/svg11.dtd"><svg width="100%" height="100%" viewBox="0 0 175 40" version="1.1" xmlns="http://www.w3.org/2000/svg" xmlns:xlink="http://www.w3.org/1999/xlink" xml:space="preserve" xmlns:serif="http://www.serif.com/" style="fill-rule:evenodd;clip-rule:evenodd;stroke-linejoin:round;stroke-miterlimit:2;"><g id="Ebene-1" serif:id="Ebene 1"><g><path d="M22.227,8.825c1.813,0 3.282,1.469 3.282,3.282c-0,1.813 -1.469,3.282 -3.282,3.282c-1.812,-0 -3.282,-1.469 -3.282,-3.282c-0,-1.813 1.47,-3.282 3.282,-3.282Zm4.899,9.138l-0.462,6.817c-0.002,0.032 -0.004,0.063 -0.007,0.093c-0.378,-0.309 -0.88,-0.367 -1.368,-0.279c-0.872,0.157 -1.714,0.501 -2.582,0.687c-0.514,0.111 -1.042,0.208 -1.57,0.198c-0.419,-0.007 -0.837,-0.078 -1.247,-0.156c-0.698,-0.132 -1.394,-0.287 -2.091,-0.427c-0.003,-0.037 -0.006,-0.076 -0.009,-0.116l-0.462,-6.817c-0.146,-2.15 9.944,-2.15 9.798,0Zm-1.988,11.174c-0.006,0.124 -0.009,0.254 -0.009,0.393c-0,0.325 0.001,1.645 0.002,2.813c-1.197,0.318 -2.469,0.428 -3.852,0.288c-0.594,-0.059 -1.308,-0.164 -1.971,-0.351c0.005,-0.606 0.01,-1.26 0.013,-1.781c0.33,-0.016 0.66,-0.001 0.961,0.031c1.632,0.175 3.45,-0.399 4.856,-1.393Z" style="fill:#005c9d;"/><path d="M29.604,11.908c1.394,-0 2.525,1.13 2.525,2.524c-0,1.394 -1.131,2.525 -2.525,2.525c-1.394,-0 -2.525,-1.131 -2.525,-2.525c0,-1.394 1.131,-2.524 2.525,-2.524Zm3.769,7.029l-0.356,5.243c-0.129,1.898 -1.181,1.43 -1.181,3.655l0,0.353c-0.592,0.523 -1.18,1.051 -1.803,1.545c-0.871,0.69 -1.754,1.279 -2.67,1.746c-0.011,-0.053 -0.017,-0.109 -0.016,-0.168c0.006,-0.334 0.025,-3.166 0.025,-3.476c0,-0.771 -0.085,-1.236 -0.21,-1.554c0.012,-0.114 0.016,-0.227 0.01,-0.339c0.098,-0.329 0.155,-0.685 0.184,-1.115l0.462,-6.817c0.005,-0.063 0.005,-0.124 0.002,-0.184c2.258,-0.353 5.627,0.017 5.553,1.111Z" style="fill:#ff9800;"/><path d="M14.85,11.908c1.395,-0 2.525,1.13 2.525,2.524c-0,1.394 -1.13,2.525 -2.525,2.525c-1.394,-0 -2.524,-1.131 -2.524,-2.525c-0,-1.394 1.13,-2.524 2.524,-2.524Zm-3.194,13.261c-0.106,-0.221 -0.187,-0.522 -0.218,-0.989l-0.357,-5.243c-0.073,-1.094 3.295,-1.465 5.554,-1.111c-0.003,0.06 -0.004,0.121 0.001,0.184l0.459,6.764c-1.517,-0.22 -2.974,-0.137 -4.485,0.276c-0.32,0.087 -0.639,0.13 -0.954,0.119Z" style="fill:#6bb90d;"/><path d="M35.918,27.243c-2.749,6.006 -8.811,10.18 -15.85,10.18c-9.742,0 -17.423,-7.918 -17.423,-17.423c0,-9.622 7.801,-17.423 17.423,-17.423c7.72,-0 14.268,5.022 16.555,11.976l0,0.002c-2.264,-5.611 -7.761,-9.57 -14.182,-9.57c-9.493,-0 -15.077,6.844 -15.077,15.287c0,3.289 2.211,6.478 5.468,5.588c1.331,-0.363 2.856,-0.53 4.773,-0.145c2.939,0.589 3.329,0.807 5.279,0.388c0.821,-0.176 1.834,-0.553 2.554,-0.682c1.319,-0.237 0.969,1.282 0.3,2.056c-1.327,1.535 -3.595,2.407 -5.367,2.218c-4.414,-0.473 -5.629,3.123 0.824,3.773c8.91,0.897 12.506,-8.134 14.723,-6.225Z" style="fill:#26b1fb;"/></g><g transform="matrix(1.38078,0,0,1.32495,41.6316,9.21191)"><g transform="matrix(5.79381,0,0,6.03797,0,4.19238)"><path d="M0.017,-0l0,-0.018l0.025,-0c0.028,-0 0.048,-0.009 0.06,-0.027c0.007,-0.011 0.01,-0.035 0.01,-0.072l0,-0.428c0,-0.041 -0.004,-0.067 -0.013,-0.078c-0.013,-0.014 -0.032,-0.021 -0.057,-0.021l-0.025,-0l0,-0.018l0.27,-0c0.099,-0 0.174,0.011 0.225,0.034c0.052,0.022 0.094,0.059 0.125,0.112c0.031,0.052 0.047,0.113 0.047,0.182c0,0.092 -0.028,0.169 -0.084,0.23c-0.063,0.069 -0.158,0.104 -0.287,0.104l-0.296,-0Zm0.189,-0.048c0.041,0.009 0.076,0.014 0.104,0.014c0.076,-0 0.138,-0.027 0.188,-0.08c0.05,-0.053 0.075,-0.125 0.075,-0.216c-0,-0.091 -0.025,-0.163 -0.075,-0.216c-0.05,-0.053 -0.114,-0.079 -0.192,-0.079c-0.029,0 -0.063,0.005 -0.1,0.014l0,0.563Z" style="fill:#4d4d4d;fill-rule:nonzero;"/></g><g transform="matrix(5.79381,0,0,6.03797,4.1841,4.19238)"><path d="M0.106,-0.279c0,0.067 0.016,0.119 0.049,0.156c0.032,0.038 0.071,0.057 0.115,0.057c0.029,0 0.054,-0.008 0.076,-0.024c0.022,-0.016 0.04,-0.044 0.054,-0.083l0.016,0.01c-0.007,0.045 -0.027,0.085 -0.06,0.122c-0.033,0.036 -0.074,0.055 -0.124,0.055c-0.053,-0 -0.099,-0.021 -0.138,-0.063c-0.038,-0.042 -0.057,-0.098 -0.057,-0.169c0,-0.076 0.02,-0.136 0.059,-0.179c0.039,-0.043 0.088,-0.064 0.148,-0.064c0.05,0 0.091,0.017 0.123,0.05c0.032,0.033 0.049,0.077 0.049,0.132l-0.31,0Zm0,-0.028l0.207,-0c-0.001,-0.029 -0.005,-0.049 -0.01,-0.061c-0.008,-0.018 -0.02,-0.032 -0.036,-0.043c-0.016,-0.01 -0.033,-0.015 -0.051,-0.015c-0.027,-0 -0.051,0.01 -0.072,0.031c-0.022,0.021 -0.034,0.05 -0.038,0.088Z" style="fill:#4d4d4d;fill-rule:nonzero;"/></g><g transform="matrix(5.79381,0,0,6.03797,6.75567,4.19238)"><path d="M0.423,-0.447l0,0.271c0,0.051 0.002,0.083 0.004,0.095c0.002,0.011 0.006,0.019 0.012,0.024c0.005,0.004 0.011,0.007 0.019,0.007c0.01,-0 0.021,-0.003 0.034,-0.009l0.007,0.017l-0.134,0.056l-0.022,-0l-0,-0.095c-0.039,0.042 -0.068,0.068 -0.088,0.079c-0.02,0.01 -0.042,0.016 -0.064,0.016c-0.025,-0 -0.047,-0.008 -0.065,-0.022c-0.019,-0.015 -0.031,-0.033 -0.039,-0.056c-0.007,-0.023 -0.01,-0.055 -0.01,-0.097l-0,-0.199c-0,-0.022 -0.003,-0.036 -0.007,-0.044c-0.005,-0.008 -0.011,-0.015 -0.02,-0.019c-0.009,-0.004 -0.026,-0.007 -0.049,-0.006l-0,-0.018l0.157,-0l-0,0.299c-0,0.042 0.007,0.069 0.021,0.082c0.015,0.013 0.032,0.02 0.053,0.02c0.014,-0 0.03,-0.005 0.048,-0.014c0.017,-0.008 0.038,-0.025 0.063,-0.05l-0,-0.253c-0,-0.026 -0.005,-0.043 -0.014,-0.052c-0.009,-0.009 -0.029,-0.014 -0.058,-0.014l-0,-0.018l0.152,-0Z" style="fill:#4d4d4d;fill-rule:nonzero;"/></g><g transform="matrix(5.79381,0,0,6.03797,9.65258,4.19238)"><path d="M0.161,-0.594l0,0.147l0.105,-0l-0,0.034l-0.105,-0l0,0.29c0,0.029 0.004,0.048 0.013,0.059c0.008,0.01 0.019,0.015 0.032,0.015c0.01,-0 0.021,-0.004 0.031,-0.01c0.01,-0.007 0.018,-0.017 0.023,-0.03l0.019,0c-0.011,0.032 -0.027,0.056 -0.048,0.072c-0.021,0.016 -0.042,0.024 -0.064,0.024c-0.015,0 -0.03,-0.004 -0.044,-0.012c-0.015,-0.008 -0.025,-0.02 -0.032,-0.036c-0.007,-0.015 -0.01,-0.039 -0.01,-0.071l-0,-0.301l-0.071,-0l-0,-0.016c0.018,-0.007 0.036,-0.019 0.055,-0.037c0.018,-0.017 0.035,-0.037 0.05,-0.06c0.007,-0.013 0.018,-0.035 0.031,-0.068l0.015,-0Z" style="fill:#4d4d4d;fill-rule:nonzero;"/></g><g transform="matrix(5.79381,0,0,6.03797,11.2623,4.19238)"><path d="M0.32,-0.46l0,0.152l-0.016,-0c-0.012,-0.048 -0.028,-0.081 -0.047,-0.098c-0.02,-0.017 -0.044,-0.026 -0.074,-0.026c-0.023,0 -0.042,0.006 -0.056,0.018c-0.014,0.012 -0.021,0.026 -0.021,0.04c0,0.019 0.006,0.034 0.016,0.047c0.01,0.014 0.031,0.028 0.062,0.043l0.071,0.034c0.066,0.033 0.099,0.075 0.099,0.128c0,0.041 -0.015,0.073 -0.046,0.098c-0.031,0.025 -0.065,0.038 -0.103,0.038c-0.028,-0 -0.059,-0.005 -0.094,-0.015c-0.011,-0.003 -0.02,-0.005 -0.027,-0.005c-0.007,0 -0.013,0.004 -0.017,0.013l-0.016,-0l-0,-0.16l0.016,0c0.009,0.046 0.026,0.08 0.052,0.103c0.026,0.023 0.055,0.035 0.087,0.035c0.022,-0 0.04,-0.007 0.054,-0.02c0.015,-0.013 0.022,-0.029 0.022,-0.048c-0,-0.022 -0.008,-0.041 -0.024,-0.056c-0.016,-0.015 -0.047,-0.035 -0.094,-0.058c-0.048,-0.024 -0.079,-0.045 -0.093,-0.064c-0.015,-0.018 -0.022,-0.042 -0.022,-0.07c-0,-0.037 0.012,-0.068 0.038,-0.092c0.025,-0.025 0.058,-0.037 0.098,-0.037c0.017,-0 0.038,0.003 0.064,0.011c0.016,0.005 0.027,0.007 0.033,0.007c0.005,0 0.009,-0.001 0.012,-0.003c0.003,-0.003 0.006,-0.008 0.01,-0.015l0.016,-0Z" style="fill:#4d4d4d;fill-rule:nonzero;"/></g><g transform="matrix(5.79381,0,0,6.03797,13.517,4.19238)"><path d="M0.411,-0.17c-0.012,0.059 -0.036,0.104 -0.071,0.136c-0.035,0.032 -0.074,0.048 -0.116,0.048c-0.051,-0 -0.095,-0.022 -0.133,-0.064c-0.038,-0.043 -0.057,-0.101 -0.057,-0.173c0,-0.07 0.021,-0.128 0.063,-0.172c0.042,-0.043 0.092,-0.065 0.151,-0.065c0.044,-0 0.08,0.011 0.108,0.034c0.028,0.024 0.042,0.048 0.042,0.073c0,0.012 -0.004,0.022 -0.012,0.03c-0.008,0.008 -0.019,0.011 -0.033,0.011c-0.019,0 -0.034,-0.006 -0.043,-0.018c-0.006,-0.007 -0.01,-0.02 -0.011,-0.039c-0.002,-0.019 -0.009,-0.034 -0.02,-0.044c-0.012,-0.01 -0.027,-0.015 -0.048,-0.015c-0.032,0 -0.058,0.012 -0.078,0.036c-0.027,0.032 -0.04,0.074 -0.04,0.127c0,0.053 0.013,0.1 0.04,0.141c0.026,0.041 0.061,0.062 0.106,0.062c0.032,-0.001 0.06,-0.011 0.086,-0.033c0.018,-0.015 0.035,-0.042 0.052,-0.082l0.014,0.007Z" style="fill:#4d4d4d;fill-rule:nonzero;"/></g><g transform="matrix(5.79381,0,0,6.03797,16.0886,4.19238)"><path d="M0.163,-0.694l-0,0.327c0.036,-0.04 0.064,-0.065 0.086,-0.077c0.021,-0.011 0.042,-0.016 0.063,-0.016c0.025,-0 0.047,0.007 0.065,0.021c0.019,0.014 0.032,0.036 0.041,0.065c0.006,0.021 0.009,0.059 0.009,0.115l0,0.158c0,0.028 0.003,0.048 0.007,0.058c0.003,0.008 0.009,0.014 0.017,0.019c0.007,0.004 0.022,0.006 0.043,0.006l-0,0.018l-0.22,0l-0,-0.018l0.01,0c0.021,0 0.035,-0.003 0.044,-0.009c0.008,-0.006 0.013,-0.016 0.017,-0.028c0.001,-0.005 0.001,-0.021 0.001,-0.046l0,-0.158c0,-0.049 -0.002,-0.081 -0.007,-0.096c-0.005,-0.016 -0.013,-0.027 -0.025,-0.035c-0.011,-0.008 -0.024,-0.011 -0.04,-0.011c-0.016,-0 -0.032,0.004 -0.049,0.012c-0.018,0.009 -0.038,0.026 -0.062,0.052l-0,0.236c-0,0.031 0.001,0.05 0.005,0.057c0.003,0.008 0.009,0.014 0.019,0.019c0.009,0.005 0.025,0.007 0.048,0.007l-0,0.018l-0.222,0l0,-0.018c0.02,0 0.036,-0.003 0.047,-0.009c0.007,-0.003 0.012,-0.009 0.016,-0.018c0.004,-0.01 0.006,-0.028 0.006,-0.056l-0,-0.405c-0,-0.051 -0.002,-0.082 -0.004,-0.094c-0.003,-0.012 -0.006,-0.02 -0.011,-0.024c-0.005,-0.004 -0.012,-0.006 -0.021,-0.006c-0.006,-0 -0.018,0.002 -0.033,0.007l-0.007,-0.017l0.134,-0.054l0.023,-0Z" style="fill:#4d4d4d;fill-rule:nonzero;"/></g><g transform="matrix(5.79381,0,0,6.03797,18.9855,4.19238)"><path d="M0.106,-0.279c0,0.067 0.016,0.119 0.049,0.156c0.032,0.038 0.071,0.057 0.115,0.057c0.029,0 0.054,-0.008 0.076,-0.024c0.022,-0.016 0.04,-0.044 0.054,-0.083l0.016,0.01c-0.007,0.045 -0.027,0.085 -0.06,0.122c-0.033,0.036 -0.074,0.055 -0.124,0.055c-0.053,-0 -0.099,-0.021 -0.138,-0.063c-0.038,-0.042 -0.057,-0.098 -0.057,-0.169c0,-0.076 0.02,-0.136 0.059,-0.179c0.039,-0.043 0.088,-0.064 0.148,-0.064c0.05,0 0.091,0.017 0.123,0.05c0.032,0.033 0.049,0.077 0.049,0.132l-0.31,0Zm0,-0.028l0.207,-0c-0.001,-0.029 -0.005,-0.049 -0.01,-0.061c-0.008,-0.018 -0.02,-0.032 -0.036,-0.043c-0.016,-0.01 -0.033,-0.015 -0.051,-0.015c-0.027,-0 -0.051,0.01 -0.072,0.031c-0.022,0.021 -0.034,0.05 -0.038,0.088Z" style="fill:#4d4d4d;fill-rule:nonzero;"/></g><g transform="matrix(5.79381,0,0,6.03797,21.557,4.19238)"><path d="M0.162,-0.46l0,0.1c0.038,-0.067 0.076,-0.1 0.115,-0.1c0.018,-0 0.033,0.005 0.045,0.016c0.011,0.011 0.017,0.023 0.017,0.038c0,0.012 -0.004,0.023 -0.012,0.032c-0.009,0.009 -0.019,0.013 -0.031,0.013c-0.011,0 -0.024,-0.005 -0.038,-0.017c-0.014,-0.011 -0.025,-0.017 -0.031,-0.017c-0.006,0 -0.013,0.004 -0.019,0.01c-0.015,0.014 -0.03,0.036 -0.046,0.066l0,0.215c0,0.024 0.003,0.043 0.009,0.056c0.005,0.008 0.012,0.016 0.023,0.022c0.011,0.005 0.026,0.008 0.046,0.008l0,0.018l-0.229,0l0,-0.018c0.023,0 0.04,-0.003 0.051,-0.01c0.008,-0.006 0.014,-0.014 0.017,-0.025c0.002,-0.006 0.003,-0.022 0.003,-0.048l-0,-0.173c-0,-0.052 -0.002,-0.083 -0.004,-0.093c-0.002,-0.01 -0.006,-0.017 -0.011,-0.022c-0.006,-0.004 -0.013,-0.007 -0.022,-0.007c-0.01,0 -0.021,0.003 -0.034,0.008l-0.005,-0.018l0.136,-0.054l0.02,-0Z" style="fill:#4d4d4d;fill-rule:nonzero;"/></g><g transform="matrix(5.79381,0,0,6.03797,24.9349,4.19238)"><path d="M0.309,-0.018l-0,0.018l-0.284,-0l-0,-0.018l0.023,-0c0.028,-0 0.048,-0.008 0.06,-0.024c0.008,-0.01 0.012,-0.035 0.012,-0.075l-0,-0.428c-0,-0.033 -0.002,-0.056 -0.007,-0.066c-0.003,-0.008 -0.01,-0.015 -0.02,-0.021c-0.014,-0.008 -0.029,-0.012 -0.045,-0.012l-0.023,-0l-0,-0.018l0.284,-0l-0,0.018l-0.024,-0c-0.027,-0 -0.047,0.008 -0.059,0.024c-0.009,0.01 -0.013,0.035 -0.013,0.075l0,0.428c0,0.033 0.002,0.055 0.007,0.066c0.003,0.008 0.01,0.015 0.02,0.021c0.014,0.008 0.029,0.012 0.045,0.012l0.024,-0Z" style="fill:#4d4d4d;fill-rule:nonzero;"/></g><g transform="matrix(5.79381,0,0,6.03797,26.8643,4.19238)"><path d="M0.162,-0.366c0.052,-0.063 0.102,-0.094 0.15,-0.094c0.024,-0 0.045,0.006 0.063,0.018c0.017,0.012 0.031,0.032 0.042,0.06c0.007,0.02 0.01,0.05 0.01,0.09l0,0.191c0,0.028 0.003,0.047 0.007,0.058c0.004,0.008 0.009,0.014 0.017,0.019c0.008,0.004 0.023,0.006 0.045,0.006l-0,0.018l-0.222,-0l0,-0.018l0.01,0c0.021,0 0.035,-0.003 0.043,-0.009c0.009,-0.006 0.014,-0.016 0.018,-0.028c0.001,-0.005 0.002,-0.02 0.002,-0.046l-0,-0.183c-0,-0.041 -0.006,-0.07 -0.016,-0.089c-0.011,-0.018 -0.029,-0.027 -0.054,-0.027c-0.038,-0 -0.077,0.021 -0.115,0.063l-0,0.236c-0,0.03 0.001,0.049 0.005,0.056c0.005,0.01 0.011,0.016 0.019,0.021c0.008,0.004 0.024,0.006 0.048,0.006l0,0.018l-0.221,-0l0,-0.018l0.01,0c0.023,0 0.038,-0.005 0.046,-0.017c0.008,-0.011 0.012,-0.034 0.012,-0.066l0,-0.166c0,-0.054 -0.001,-0.087 -0.004,-0.098c-0.002,-0.012 -0.006,-0.02 -0.011,-0.024c-0.005,-0.004 -0.012,-0.007 -0.02,-0.007c-0.009,0 -0.02,0.003 -0.033,0.008l-0.007,-0.018l0.135,-0.054l0.021,-0l-0,0.094Z" style="fill:#4d4d4d;fill-rule:nonzero;"/></g><g transform="matrix(5.79381,0,0,6.03797,29.7612,4.19238)"><path d="M0.161,-0.594l0,0.147l0.105,-0l-0,0.034l-0.105,-0l0,0.29c0,0.029 0.004,0.048 0.013,0.059c0.008,0.01 0.019,0.015 0.032,0.015c0.01,-0 0.021,-0.004 0.031,-0.01c0.01,-0.007 0.018,-0.017 0.023,-0.03l0.019,0c-0.011,0.032 -0.027,0.056 -0.048,0.072c-0.021,0.016 -0.042,0.024 -0.064,0.024c-0.015,0 -0.03,-0.004 -0.044,-0.012c-0.015,-0.008 -0.025,-0.02 -0.032,-0.036c-0.007,-0.015 -0.01,-0.039 -0.01,-0.071l-0,-0.301l-0.071,-0l-0,-0.016c0.018,-0.007 0.036,-0.019 0.055,-0.037c0.018,-0.017 0.035,-0.037 0.05,-0.06c0.007,-0.013 0.018,-0.035 0.031,-0.068l0.015,-0Z" style="fill:#4d4d4d;fill-rule:nonzero;"/></g><g transform="matrix(5.79381,0,0,6.03797,31.3709,4.19238)"><path d="M0.106,-0.279c0,0.067 0.016,0.119 0.049,0.156c0.032,0.038 0.071,0.057 0.115,0.057c0.029,0 0.054,-0.008 0.076,-0.024c0.022,-0.016 0.04,-0.044 0.054,-0.083l0.016,0.01c-0.007,0.045 -0.027,0.085 -0.06,0.122c-0.033,0.036 -0.074,0.055 -0.124,0.055c-0.053,-0 -0.099,-0.021 -0.138,-0.063c-0.038,-0.042 -0.057,-0.098 -0.057,-0.169c0,-0.076 0.02,-0.136 0.059,-0.179c0.039,-0.043 0.088,-0.064 0.148,-0.064c0.05,0 0.091,0.017 0.123,0.05c0.032,0.033 0.049,0.077 0.049,0.132l-0.31,0Zm0,-0.028l0.207,-0c-0.001,-0.029 -0.005,-0.049 -0.01,-0.061c-0.008,-0.018 -0.02,-0.032 -0.036,-0.043c-0.016,-0.01 -0.033,-0.015 -0.051,-0.015c-0.027,-0 -0.051,0.01 -0.072,0.031c-0.022,0.021 -0.034,0.05 -0.038,0.088Z" style="fill:#4d4d4d;fill-rule:nonzero;"/></g><g transform="matrix(5.79381,0,0,6.03797,33.9424,4.19238)"><path d="M0.162,-0.46l0,0.1c0.038,-0.067 0.076,-0.1 0.115,-0.1c0.018,-0 0.033,0.005 0.045,0.016c0.011,0.011 0.017,0.023 0.017,0.038c0,0.012 -0.004,0.023 -0.012,0.032c-0.009,0.009 -0.019,0.013 -0.031,0.013c-0.011,0 -0.024,-0.005 -0.038,-0.017c-0.014,-0.011 -0.025,-0.017 -0.031,-0.017c-0.006,0 -0.013,0.004 -0.019,0.01c-0.015,0.014 -0.03,0.036 -0.046,0.066l0,0.215c0,0.024 0.003,0.043 0.009,0.056c0.005,0.008 0.012,0.016 0.023,0.022c0.011,0.005 0.026,0.008 0.046,0.008l0,0.018l-0.229,0l0,-0.018c0.023,0 0.04,-0.003 0.051,-0.01c0.008,-0.006 0.014,-0.014 0.017,-0.025c0.002,-0.006 0.003,-0.022 0.003,-0.048l-0,-0.173c-0,-0.052 -0.002,-0.083 -0.004,-0.093c-0.002,-0.01 -0.006,-0.017 -0.011,-0.022c-0.006,-0.004 -0.013,-0.007 -0.022,-0.007c-0.01,0 -0.021,0.003 -0.034,0.008l-0.005,-0.018l0.136,-0.054l0.02,-0Z" style="fill:#4d4d4d;fill-rule:nonzero;"/></g><g transform="matrix(5.79381,0,0,6.03797,35.8718,4.19238)"><path d="M0.106,-0.279c0,0.067 0.016,0.119 0.049,0.156c0.032,0.038 0.071,0.057 0.115,0.057c0.029,0 0.054,-0.008 0.076,-0.024c0.022,-0.016 0.04,-0.044 0.054,-0.083l0.016,0.01c-0.007,0.045 -0.027,0.085 -0.06,0.122c-0.033,0.036 -0.074,0.055 -0.124,0.055c-0.053,-0 -0.099,-0.021 -0.138,-0.063c-0.038,-0.042 -0.057,-0.098 -0.057,-0.169c0,-0.076 0.02,-0.136 0.059,-0.179c0.039,-0.043 0.088,-0.064 0.148,-0.064c0.05,0 0.091,0.017 0.123,0.05c0.032,0.033 0.049,0.077 0.049,0.132l-0.31,0Zm0,-0.028l0.207,-0c-0.001,-0.029 -0.005,-0.049 -0.01,-0.061c-0.008,-0.018 -0.02,-0.032 -0.036,-0.043c-0.016,-0.01 -0.033,-0.015 -0.051,-0.015c-0.027,-0 -0.051,0.01 -0.072,0.031c-0.022,0.021 -0.034,0.05 -0.038,0.088Z" style="fill:#4d4d4d;fill-rule:nonzero;"/></g><g transform="matrix(5.79381,0,0,6.03797,38.4434,4.19238)"><path d="M0.32,-0.46l0,0.152l-0.016,-0c-0.012,-0.048 -0.028,-0.081 -0.047,-0.098c-0.02,-0.017 -0.044,-0.026 -0.074,-0.026c-0.023,0 -0.042,0.006 -0.056,0.018c-0.014,0.012 -0.021,0.026 -0.021,0.04c0,0.019 0.006,0.034 0.016,0.047c0.01,0.014 0.031,0.028 0.062,0.043l0.071,0.034c0.066,0.033 0.099,0.075 0.099,0.128c0,0.041 -0.015,0.073 -0.046,0.098c-0.031,0.025 -0.065,0.038 -0.103,0.038c-0.028,-0 -0.059,-0.005 -0.094,-0.015c-0.011,-0.003 -0.02,-0.005 -0.027,-0.005c-0.007,0 -0.013,0.004 -0.017,0.013l-0.016,-0l-0,-0.16l0.016,0c0.009,0.046 0.026,0.08 0.052,0.103c0.026,0.023 0.055,0.035 0.087,0.035c0.022,-0 0.04,-0.007 0.054,-0.02c0.015,-0.013 0.022,-0.029 0.022,-0.048c-0,-0.022 -0.008,-0.041 -0.024,-0.056c-0.016,-0.015 -0.047,-0.035 -0.094,-0.058c-0.048,-0.024 -0.079,-0.045 -0.093,-0.064c-0.015,-0.018 -0.022,-0.042 -0.022,-0.07c-0,-0.037 0.012,-0.068 0.038,-0.092c0.025,-0.025 0.058,-0.037 0.098,-0.037c0.017,-0 0.038,0.003 0.064,0.011c0.016,0.005 0.027,0.007 0.033,0.007c0.005,0 0.009,-0.001 0.012,-0.003c0.003,-0.003 0.006,-0.008 0.01,-0.015l0.016,-0Z" style="fill:#4d4d4d;fill-rule:nonzero;"/></g><g transform="matrix(5.79381,0,0,6.03797,40.6981,4.19238)"><path d="M0.32,-0.46l0,0.152l-0.016,-0c-0.012,-0.048 -0.028,-0.081 -0.047,-0.098c-0.02,-0.017 -0.044,-0.026 -0.074,-0.026c-0.023,0 -0.042,0.006 -0.056,0.018c-0.014,0.012 -0.021,0.026 -0.021,0.04c0,0.019 0.006,0.034 0.016,0.047c0.01,0.014 0.031,0.028 0.062,0.043l0.071,0.034c0.066,0.033 0.099,0.075 0.099,0.128c0,0.041 -0.015,0.073 -0.046,0.098c-0.031,0.025 -0.065,0.038 -0.103,0.038c-0.028,-0 -0.059,-0.005 -0.094,-0.015c-0.011,-0.003 -0.02,-0.005 -0.027,-0.005c-0.007,0 -0.013,0.004 -0.017,0.013l-0.016,-0l-0,-0.16l0.016,0c0.009,0.046 0.026,0.08 0.052,0.103c0.026,0.023 0.055,0.035 0.087,0.035c0.022,-0 0.04,-0.007 0.054,-0.02c0.015,-0.013 0.022,-0.029 0.022,-0.048c-0,-0.022 -0.008,-0.041 -0.024,-0.056c-0.016,-0.015 -0.047,-0.035 -0.094,-0.058c-0.048,-0.024 -0.079,-0.045 -0.093,-0.064c-0.015,-0.018 -0.022,-0.042 -0.022,-0.07c-0,-0.037 0.012,-0.068 0.038,-0.092c0.025,-0.025 0.058,-0.037 0.098,-0.037c0.017,-0 0.038,0.003 0.064,0.011c0.016,0.005 0.027,0.007 0.033,0.007c0.005,0 0.009,-0.001 0.012,-0.003c0.003,-0.003 0.006,-0.008 0.01,-0.015l0.016,-0Z" style="fill:#4d4d4d;fill-rule:nonzero;"/></g><g transform="matrix(5.79381,0,0,6.03797,42.9528,4.19238)"><path d="M0.106,-0.279c0,0.067 0.016,0.119 0.049,0.156c0.032,0.038 0.071,0.057 0.115,0.057c0.029,0 0.054,-0.008 0.076,-0.024c0.022,-0.016 0.04,-0.044 0.054,-0.083l0.016,0.01c-0.007,0.045 -0.027,0.085 -0.06,0.122c-0.033,0.036 -0.074,0.055 -0.124,0.055c-0.053,-0 -0.099,-0.021 -0.138,-0.063c-0.038,-0.042 -0.057,-0.098 -0.057,-0.169c0,-0.076 0.02,-0.136 0.059,-0.179c0.039,-0.043 0.088,-0.064 0.148,-0.064c0.05,0 0.091,0.017 0.123,0.05c0.032,0.033 0.049,0.077 0.049,0.132l-0.31,0Zm0,-0.028l0.207,-0c-0.001,-0.029 -0.005,-0.049 -0.01,-0.061c-0.008,-0.018 -0.02,-0.032 -0.036,-0.043c-0.016,-0.01 -0.033,-0.015 -0.051,-0.015c-0.027,-0 -0.051,0.01 -0.072,0.031c-0.022,0.021 -0.034,0.05 -0.038,0.088Z" style="fill:#4d4d4d;fill-rule:nonzero;"/></g><g transform="matrix(5.79381,0,0,6.03797,45.5244,4.19238)"><path d="M0.162,-0.366c0.052,-0.063 0.102,-0.094 0.15,-0.094c0.024,-0 0.045,0.006 0.063,0.018c0.017,0.012 0.031,0.032 0.042,0.06c0.007,0.02 0.01,0.05 0.01,0.09l0,0.191c0,0.028 0.003,0.047 0.007,0.058c0.004,0.008 0.009,0.014 0.017,0.019c0.008,0.004 0.023,0.006 0.045,0.006l-0,0.018l-0.222,-0l0,-0.018l0.01,0c0.021,0 0.035,-0.003 0.043,-0.009c0.009,-0.006 0.014,-0.016 0.018,-0.028c0.001,-0.005 0.002,-0.02 0.002,-0.046l-0,-0.183c-0,-0.041 -0.006,-0.07 -0.016,-0.089c-0.011,-0.018 -0.029,-0.027 -0.054,-0.027c-0.038,-0 -0.077,0.021 -0.115,0.063l-0,0.236c-0,0.03 0.001,0.049 0.005,0.056c0.005,0.01 0.011,0.016 0.019,0.021c0.008,0.004 0.024,0.006 0.048,0.006l0,0.018l-0.221,-0l0,-0.018l0.01,0c0.023,0 0.038,-0.005 0.046,-0.017c0.008,-0.011 0.012,-0.034 0.012,-0.066l0,-0.166c0,-0.054 -0.001,-0.087 -0.004,-0.098c-0.002,-0.012 -0.006,-0.02 -0.011,-0.024c-0.005,-0.004 -0.012,-0.007 -0.02,-0.007c-0.009,0 -0.02,0.003 -0.033,0.008l-0.007,-0.018l0.135,-0.054l0.021,-0l-0,0.094Z" style="fill:#4d4d4d;fill-rule:nonzero;"/></g><g transform="matrix(5.79381,0,0,6.03797,48.4213,4.19238)"><path d="M0.008,-0.447l0.211,-0l-0,0.018l-0.014,-0c-0.013,-0 -0.022,0.003 -0.029,0.009c-0.007,0.006 -0.01,0.015 -0.01,0.025c0,0.011 0.003,0.025 0.01,0.041l0.104,0.247l0.105,-0.257c0.007,-0.018 0.011,-0.032 0.011,-0.041c-0,-0.005 -0.001,-0.009 -0.004,-0.012c-0.003,-0.004 -0.008,-0.008 -0.014,-0.01c-0.005,-0.001 -0.016,-0.002 -0.033,-0.002l-0,-0.018l0.146,-0l-0,0.018c-0.017,0.001 -0.029,0.005 -0.035,0.01c-0.012,0.01 -0.022,0.026 -0.031,0.049l-0.159,0.384l-0.02,-0l-0.16,-0.378c-0.007,-0.017 -0.014,-0.03 -0.02,-0.038c-0.007,-0.007 -0.015,-0.014 -0.025,-0.019c-0.006,-0.003 -0.016,-0.006 -0.033,-0.008l0,-0.018Z" style="fill:#4d4d4d;fill-rule:nonzero;"/></g><g transform="matrix(5.79381,0,0,6.03797,51.3182,4.19238)"><path d="M0.106,-0.279c0,0.067 0.016,0.119 0.049,0.156c0.032,0.038 0.071,0.057 0.115,0.057c0.029,0 0.054,-0.008 0.076,-0.024c0.022,-0.016 0.04,-0.044 0.054,-0.083l0.016,0.01c-0.007,0.045 -0.027,0.085 -0.06,0.122c-0.033,0.036 -0.074,0.055 -0.124,0.055c-0.053,-0 -0.099,-0.021 -0.138,-0.063c-0.038,-0.042 -0.057,-0.098 -0.057,-0.169c0,-0.076 0.02,-0.136 0.059,-0.179c0.039,-0.043 0.088,-0.064 0.148,-0.064c0.05,0 0.091,0.017 0.123,0.05c0.032,0.033 0.049,0.077 0.049,0.132l-0.31,0Zm0,-0.028l0.207,-0c-0.001,-0.029 -0.005,-0.049 -0.01,-0.061c-0.008,-0.018 -0.02,-0.032 -0.036,-0.043c-0.016,-0.01 -0.033,-0.015 -0.051,-0.015c-0.027,-0 -0.051,0.01 -0.072,0.031c-0.022,0.021 -0.034,0.05 -0.038,0.088Z" style="fill:#4d4d4d;fill-rule:nonzero;"/></g><g transform="matrix(5.79381,0,0,6.03797,53.8898,4.19238)"><path d="M0.162,-0.46l0,0.1c0.038,-0.067 0.076,-0.1 0.115,-0.1c0.018,-0 0.033,0.005 0.045,0.016c0.011,0.011 0.017,0.023 0.017,0.038c0,0.012 -0.004,0.023 -0.012,0.032c-0.009,0.009 -0.019,0.013 -0.031,0.013c-0.011,0 -0.024,-0.005 -0.038,-0.017c-0.014,-0.011 -0.025,-0.017 -0.031,-0.017c-0.006,0 -0.013,0.004 -0.019,0.01c-0.015,0.014 -0.03,0.036 -0.046,0.066l0,0.215c0,0.024 0.003,0.043 0.009,0.056c0.005,0.008 0.012,0.016 0.023,0.022c0.011,0.005 0.026,0.008 0.046,0.008l0,0.018l-0.229,0l0,-0.018c0.023,0 0.04,-0.003 0.051,-0.01c0.008,-0.006 0.014,-0.014 0.017,-0.025c0.002,-0.006 0.003,-0.022 0.003,-0.048l-0,-0.173c-0,-0.052 -0.002,-0.083 -0.004,-0.093c-0.002,-0.01 -0.006,-0.017 -0.011,-0.022c-0.006,-0.004 -0.013,-0.007 -0.022,-0.007c-0.01,0 -0.021,0.003 -0.034,0.008l-0.005,-0.018l0.136,-0.054l0.02,-0Z" style="fill:#4d4d4d;fill-rule:nonzero;"/></g><g transform="matrix(5.79381,0,0,6.03797,55.8192,4.19238)"><path d="M0.154,-0.37c0.043,-0.06 0.09,-0.09 0.14,-0.09c0.046,-0 0.086,0.019 0.12,0.058c0.034,0.04 0.051,0.093 0.051,0.161c0,0.08 -0.026,0.144 -0.079,0.192c-0.045,0.042 -0.095,0.063 -0.151,0.063c-0.026,-0 -0.053,-0.005 -0.079,-0.014c-0.027,-0.01 -0.055,-0.024 -0.083,-0.043l0,-0.463c0,-0.051 -0.001,-0.082 -0.003,-0.094c-0.003,-0.012 -0.007,-0.02 -0.012,-0.024c-0.005,-0.004 -0.012,-0.006 -0.019,-0.006c-0.01,-0 -0.021,0.002 -0.035,0.007l-0.006,-0.017l0.134,-0.054l0.022,-0l-0,0.324Zm-0,0.031l-0,0.268c0.016,0.016 0.034,0.028 0.051,0.037c0.018,0.008 0.036,0.012 0.055,0.012c0.029,0 0.057,-0.016 0.083,-0.049c0.025,-0.032 0.038,-0.08 0.038,-0.142c-0,-0.057 -0.013,-0.101 -0.038,-0.132c-0.026,-0.031 -0.055,-0.046 -0.088,-0.046c-0.017,-0 -0.034,0.004 -0.051,0.013c-0.013,0.007 -0.03,0.02 -0.05,0.039Z" style="fill:#4d4d4d;fill-rule:nonzero;"/></g><g transform="matrix(5.79381,0,0,6.03797,58.7161,4.19238)"><path d="M0.285,-0.064c-0.046,0.035 -0.075,0.056 -0.087,0.061c-0.017,0.008 -0.036,0.012 -0.056,0.012c-0.031,0 -0.056,-0.01 -0.076,-0.031c-0.02,-0.022 -0.03,-0.049 -0.03,-0.084c-0,-0.022 0.005,-0.041 0.014,-0.057c0.014,-0.022 0.037,-0.043 0.07,-0.062c0.033,-0.02 0.088,-0.043 0.165,-0.071l-0,-0.018c-0,-0.045 -0.007,-0.075 -0.022,-0.092c-0.014,-0.016 -0.034,-0.025 -0.061,-0.025c-0.021,0 -0.037,0.006 -0.049,0.017c-0.013,0.011 -0.019,0.024 -0.019,0.038l0.001,0.028c0,0.015 -0.004,0.027 -0.011,0.035c-0.008,0.008 -0.018,0.012 -0.03,0.012c-0.012,0 -0.022,-0.004 -0.03,-0.012c-0.007,-0.009 -0.011,-0.02 -0.011,-0.035c-0,-0.028 0.014,-0.054 0.043,-0.077c0.028,-0.024 0.069,-0.035 0.12,-0.035c0.04,-0 0.073,0.006 0.098,0.02c0.019,0.01 0.033,0.025 0.042,0.047c0.006,0.014 0.009,0.043 0.009,0.086l0,0.152c0,0.042 0.001,0.068 0.003,0.078c0.001,0.01 0.004,0.016 0.008,0.019c0.003,0.004 0.008,0.005 0.013,0.005c0.005,0 0.009,-0.001 0.013,-0.003c0.007,-0.004 0.02,-0.016 0.04,-0.036l-0,0.028c-0.037,0.048 -0.071,0.073 -0.105,0.073c-0.016,-0 -0.028,-0.006 -0.038,-0.017c-0.009,-0.011 -0.014,-0.03 -0.014,-0.056Zm-0,-0.032l-0,-0.171c-0.049,0.02 -0.081,0.034 -0.096,0.042c-0.025,0.014 -0.044,0.029 -0.055,0.045c-0.011,0.015 -0.016,0.033 -0.016,0.051c-0,0.024 0.007,0.043 0.021,0.058c0.014,0.016 0.03,0.024 0.048,0.024c0.025,-0 0.057,-0.017 0.098,-0.049Z" style="fill:#4d4d4d;fill-rule:nonzero;"/></g><g transform="matrix(5.79381,0,0,6.03797,61.2876,4.19238)"><path d="M0.162,-0.366c0.052,-0.063 0.102,-0.094 0.15,-0.094c0.024,-0 0.045,0.006 0.063,0.018c0.017,0.012 0.031,0.032 0.042,0.06c0.007,0.02 0.01,0.05 0.01,0.09l0,0.191c0,0.028 0.003,0.047 0.007,0.058c0.004,0.008 0.009,0.014 0.017,0.019c0.008,0.004 0.023,0.006 0.045,0.006l-0,0.018l-0.222,-0l0,-0.018l0.01,0c0.021,0 0.035,-0.003 0.043,-0.009c0.009,-0.006 0.014,-0.016 0.018,-0.028c0.001,-0.005 0.002,-0.02 0.002,-0.046l-0,-0.183c-0,-0.041 -0.006,-0.07 -0.016,-0.089c-0.011,-0.018 -0.029,-0.027 -0.054,-0.027c-0.038,-0 -0.077,0.021 -0.115,0.063l-0,0.236c-0,0.03 0.001,0.049 0.005,0.056c0.005,0.01 0.011,0.016 0.019,0.021c0.008,0.004 0.024,0.006 0.048,0.006l0,0.018l-0.221,-0l0,-0.018l0.01,0c0.023,0 0.038,-0.005 0.046,-0.017c0.008,-0.011 0.012,-0.034 0.012,-0.066l0,-0.166c0,-0.054 -0.001,-0.087 -0.004,-0.098c-0.002,-0.012 -0.006,-0.02 -0.011,-0.024c-0.005,-0.004 -0.012,-0.007 -0.02,-0.007c-0.009,0 -0.02,0.003 -0.033,0.008l-0.007,-0.018l0.135,-0.054l0.021,-0l-0,0.094Z" style="fill:#4d4d4d;fill-rule:nonzero;"/></g><g transform="matrix(5.79381,0,0,6.03797,64.1845,4.19238)"><path d="M0.347,-0.05c-0.022,0.022 -0.043,0.039 -0.064,0.049c-0.021,0.01 -0.043,0.015 -0.067,0.015c-0.049,-0 -0.092,-0.021 -0.128,-0.062c-0.037,-0.04 -0.055,-0.093 -0.055,-0.157c0,-0.064 0.02,-0.123 0.061,-0.176c0.04,-0.053 0.092,-0.08 0.156,-0.08c0.039,0 0.071,0.013 0.097,0.038l0,-0.083c0,-0.051 -0.001,-0.082 -0.003,-0.094c-0.003,-0.012 -0.007,-0.02 -0.012,-0.024c-0.005,-0.004 -0.012,-0.006 -0.019,-0.006c-0.009,-0 -0.02,0.002 -0.034,0.007l-0.007,-0.017l0.134,-0.054l0.022,-0l-0,0.517c-0,0.052 0.001,0.084 0.003,0.096c0.003,0.011 0.007,0.019 0.012,0.024c0.005,0.004 0.012,0.007 0.019,0.007c0.009,-0 0.02,-0.003 0.035,-0.009l0.005,0.017l-0.132,0.056l-0.023,-0l0,-0.064Zm0,-0.034l0,-0.231c-0.002,-0.022 -0.008,-0.042 -0.017,-0.06c-0.01,-0.019 -0.023,-0.032 -0.039,-0.042c-0.016,-0.009 -0.032,-0.014 -0.047,-0.014c-0.029,0 -0.055,0.013 -0.077,0.039c-0.03,0.034 -0.044,0.083 -0.044,0.148c-0,0.066 0.014,0.116 0.043,0.151c0.028,0.035 0.06,0.053 0.095,0.053c0.03,-0 0.058,-0.015 0.086,-0.044Z" style="fill:#4d4d4d;fill-rule:nonzero;"/></g><g transform="matrix(5.79381,0,0,6.03797,68.5299,4.19238)"><path d="M0.347,-0.05c-0.022,0.022 -0.043,0.039 -0.064,0.049c-0.021,0.01 -0.043,0.015 -0.067,0.015c-0.049,-0 -0.092,-0.021 -0.128,-0.062c-0.037,-0.04 -0.055,-0.093 -0.055,-0.157c0,-0.064 0.02,-0.123 0.061,-0.176c0.04,-0.053 0.092,-0.08 0.156,-0.08c0.039,0 0.071,0.013 0.097,0.038l0,-0.083c0,-0.051 -0.001,-0.082 -0.003,-0.094c-0.003,-0.012 -0.007,-0.02 -0.012,-0.024c-0.005,-0.004 -0.012,-0.006 -0.019,-0.006c-0.009,-0 -0.02,0.002 -0.034,0.007l-0.007,-0.017l0.134,-0.054l0.022,-0l-0,0.517c-0,0.052 0.001,0.084 0.003,0.096c0.003,0.011 0.007,0.019 0.012,0.024c0.005,0.004 0.012,0.007 0.019,0.007c0.009,-0 0.02,-0.003 0.035,-0.009l0.005,0.017l-0.132,0.056l-0.023,-0l0,-0.064Zm0,-0.034l0,-0.231c-0.002,-0.022 -0.008,-0.042 -0.017,-0.06c-0.01,-0.019 -0.023,-0.032 -0.039,-0.042c-0.016,-0.009 -0.032,-0.014 -0.047,-0.014c-0.029,0 -0.055,0.013 -0.077,0.039c-0.03,0.034 -0.044,0.083 -0.044,0.148c-0,0.066 0.014,0.116 0.043,0.151c0.028,0.035 0.06,0.053 0.095,0.053c0.03,-0 0.058,-0.015 0.086,-0.044Z" style="fill:#4d4d4d;fill-rule:nonzero;"/></g><g transform="matrix(5.79381,0,0,6.03797,71.4268,4.19238)"><path d="M0.106,-0.279c0,0.067 0.016,0.119 0.049,0.156c0.032,0.038 0.071,0.057 0.115,0.057c0.029,0 0.054,-0.008 0.076,-0.024c0.022,-0.016 0.04,-0.044 0.054,-0.083l0.016,0.01c-0.007,0.045 -0.027,0.085 -0.06,0.122c-0.033,0.036 -0.074,0.055 -0.124,0.055c-0.053,-0 -0.099,-0.021 -0.138,-0.063c-0.038,-0.042 -0.057,-0.098 -0.057,-0.169c0,-0.076 0.02,-0.136 0.059,-0.179c0.039,-0.043 0.088,-0.064 0.148,-0.064c0.05,0 0.091,0.017 0.123,0.05c0.032,0.033 0.049,0.077 0.049,0.132l-0.31,0Zm0,-0.028l0.207,-0c-0.001,-0.029 -0.005,-0.049 -0.01,-0.061c-0.008,-0.018 -0.02,-0.032 -0.036,-0.043c-0.016,-0.01 -0.033,-0.015 -0.051,-0.015c-0.027,-0 -0.051,0.01 -0.072,0.031c-0.022,0.021 -0.034,0.05 -0.038,0.088Z" style="fill:#4d4d4d;fill-rule:nonzero;"/></g><g transform="matrix(5.79381,0,0,6.03797,73.9984,4.19238)"><path d="M0.162,-0.46l0,0.1c0.038,-0.067 0.076,-0.1 0.115,-0.1c0.018,-0 0.033,0.005 0.045,0.016c0.011,0.011 0.017,0.023 0.017,0.038c0,0.012 -0.004,0.023 -0.012,0.032c-0.009,0.009 -0.019,0.013 -0.031,0.013c-0.011,0 -0.024,-0.005 -0.038,-0.017c-0.014,-0.011 -0.025,-0.017 -0.031,-0.017c-0.006,0 -0.013,0.004 -0.019,0.01c-0.015,0.014 -0.03,0.036 -0.046,0.066l0,0.215c0,0.024 0.003,0.043 0.009,0.056c0.005,0.008 0.012,0.016 0.023,0.022c0.011,0.005 0.026,0.008 0.046,0.008l0,0.018l-0.229,0l0,-0.018c0.023,0 0.04,-0.003 0.051,-0.01c0.008,-0.006 0.014,-0.014 0.017,-0.025c0.002,-0.006 0.003,-0.022 0.003,-0.048l-0,-0.173c-0,-0.052 -0.002,-0.083 -0.004,-0.093c-0.002,-0.01 -0.006,-0.017 -0.011,-0.022c-0.006,-0.004 -0.013,-0.007 -0.022,-0.007c-0.01,0 -0.021,0.003 -0.034,0.008l-0.005,-0.018l0.136,-0.054l0.02,-0Z" style="fill:#4d4d4d;fill-rule:nonzero;"/></g><g transform="matrix(10.1392,0,0,10.5665,0,14.0041)"><path d="M0.299,-0.367l0.244,0.242c0.04,0.041 0.074,0.068 0.103,0.082c0.028,0.015 0.056,0.023 0.084,0.025l0,0.018l-0.314,-0l-0,-0.018c0.018,-0 0.032,-0.003 0.04,-0.01c0.009,-0.006 0.013,-0.013 0.013,-0.021c-0,-0.008 -0.002,-0.015 -0.005,-0.021c-0.003,-0.006 -0.013,-0.018 -0.03,-0.034l-0.229,-0.227l0,0.214c0,0.033 0.002,0.055 0.006,0.066c0.004,0.008 0.011,0.015 0.021,0.021c0.014,0.008 0.029,0.012 0.044,0.012l0.023,-0l-0,0.018l-0.282,0l-0,-0.018l0.023,-0c0.027,-0 0.047,-0.008 0.06,-0.024c0.007,-0.01 0.011,-0.035 0.011,-0.075l0,-0.428c0,-0.033 -0.002,-0.056 -0.006,-0.067c-0.003,-0.008 -0.01,-0.014 -0.02,-0.02c-0.014,-0.008 -0.029,-0.012 -0.045,-0.012l-0.023,-0l-0,-0.018l0.282,-0l-0,0.018l-0.023,-0c-0.015,-0 -0.03,0.004 -0.044,0.011c-0.01,0.005 -0.017,0.013 -0.021,0.024c-0.004,0.01 -0.006,0.032 -0.006,0.064l0,0.203c0.007,-0.006 0.029,-0.027 0.067,-0.062c0.097,-0.089 0.155,-0.148 0.175,-0.178c0.009,-0.013 0.013,-0.024 0.013,-0.034c0,-0.007 -0.003,-0.014 -0.01,-0.019c-0.007,-0.006 -0.018,-0.009 -0.034,-0.009l-0.016,-0l0,-0.018l0.244,-0l-0,0.018c-0.015,0 -0.028,0.002 -0.04,0.006c-0.011,0.003 -0.026,0.01 -0.042,0.021c-0.017,0.01 -0.038,0.026 -0.063,0.049c-0.007,0.007 -0.04,0.04 -0.099,0.1l-0.101,0.101Z" style="fill:#4d4d4d;fill-rule:nonzero;"/></g><g transform="matrix(10.1392,0,0,10.5665,7.32218,14.0041)"><path d="M0.185,-0.694l0,0.593c0,0.028 0.002,0.046 0.006,0.056c0.004,0.009 0.01,0.016 0.019,0.02c0.008,0.005 0.024,0.007 0.047,0.007l0,0.018l-0.219,0l0,-0.018c0.021,0 0.035,-0.002 0.042,-0.006c0.008,-0.004 0.013,-0.011 0.018,-0.021c0.004,-0.01 0.006,-0.028 0.006,-0.056l0,-0.406c0,-0.051 -0.001,-0.082 -0.003,-0.093c-0.003,-0.012 -0.006,-0.02 -0.011,-0.024c-0.005,-0.004 -0.012,-0.006 -0.02,-0.006c-0.008,-0 -0.019,0.002 -0.032,0.007l-0.008,-0.017l0.133,-0.054l0.022,-0Z" style="fill:#4d4d4d;fill-rule:nonzero;"/></g><g transform="matrix(10.1392,0,0,10.5665,10.1392,14.0041)"><path d="M0.106,-0.279c0,0.067 0.016,0.119 0.049,0.156c0.032,0.038 0.071,0.057 0.115,0.057c0.029,0 0.054,-0.008 0.076,-0.024c0.022,-0.016 0.04,-0.044 0.054,-0.083l0.016,0.01c-0.007,0.045 -0.027,0.085 -0.06,0.122c-0.033,0.036 -0.074,0.055 -0.124,0.055c-0.053,-0 -0.099,-0.021 -0.138,-0.063c-0.038,-0.042 -0.057,-0.098 -0.057,-0.169c0,-0.076 0.02,-0.136 0.059,-0.179c0.039,-0.043 0.088,-0.064 0.148,-0.064c0.05,0 0.091,0.017 0.123,0.05c0.032,0.033 0.049,0.077 0.049,0.132l-0.31,0Zm0,-0.028l0.207,-0c-0.001,-0.029 -0.005,-0.049 -0.01,-0.061c-0.008,-0.018 -0.02,-0.032 -0.036,-0.043c-0.016,-0.01 -0.033,-0.015 -0.051,-0.015c-0.027,-0 -0.051,0.01 -0.072,0.031c-0.022,0.021 -0.034,0.05 -0.038,0.088Z" style="fill:#4d4d4d;fill-rule:nonzero;"/></g><g transform="matrix(10.1392,0,0,10.5665,14.6394,14.0041)"><path d="M0.145,-0.694c0.014,-0 0.025,0.004 0.035,0.014c0.01,0.01 0.014,0.021 0.014,0.035c0,0.014 -0.004,0.025 -0.014,0.035c-0.01,0.01 -0.021,0.015 -0.035,0.015c-0.014,-0 -0.025,-0.005 -0.035,-0.015c-0.01,-0.01 -0.015,-0.021 -0.015,-0.035c0,-0.014 0.005,-0.025 0.015,-0.035c0.009,-0.01 0.021,-0.014 0.035,-0.014Zm0.041,0.234l-0,0.359c-0,0.028 0.002,0.047 0.006,0.056c0.004,0.009 0.01,0.016 0.018,0.021c0.008,0.004 0.022,0.006 0.043,0.006l0,0.018l-0.217,0l0,-0.018c0.022,0 0.037,-0.002 0.044,-0.006c0.008,-0.004 0.014,-0.011 0.018,-0.021c0.004,-0.01 0.006,-0.028 0.006,-0.056l0,-0.172c0,-0.049 -0.001,-0.08 -0.004,-0.095c-0.002,-0.01 -0.006,-0.017 -0.011,-0.021c-0.005,-0.004 -0.011,-0.007 -0.02,-0.007c-0.009,0 -0.02,0.003 -0.033,0.008l-0.007,-0.018l0.135,-0.054l0.022,-0Z" style="fill:#4d4d4d;fill-rule:nonzero;"/></g><g transform="matrix(10.1392,0,0,10.5665,17.4564,14.0041)"><path d="M0.162,-0.366c0.052,-0.063 0.102,-0.094 0.15,-0.094c0.024,-0 0.045,0.006 0.063,0.018c0.017,0.012 0.031,0.032 0.042,0.06c0.007,0.02 0.01,0.05 0.01,0.09l0,0.191c0,0.028 0.003,0.047 0.007,0.058c0.004,0.008 0.009,0.014 0.017,0.019c0.008,0.004 0.023,0.006 0.045,0.006l-0,0.018l-0.222,-0l0,-0.018l0.01,0c0.021,0 0.035,-0.003 0.043,-0.009c0.009,-0.006 0.014,-0.016 0.018,-0.028c0.001,-0.005 0.002,-0.02 0.002,-0.046l-0,-0.183c-0,-0.041 -0.006,-0.07 -0.016,-0.089c-0.011,-0.018 -0.029,-0.027 -0.054,-0.027c-0.038,-0 -0.077,0.021 -0.115,0.063l-0,0.236c-0,0.03 0.001,0.049 0.005,0.056c0.005,0.01 0.011,0.016 0.019,0.021c0.008,0.004 0.024,0.006 0.048,0.006l0,0.018l-0.221,-0l0,-0.018l0.01,0c0.023,0 0.038,-0.005 0.046,-0.017c0.008,-0.011 0.012,-0.034 0.012,-0.066l0,-0.166c0,-0.054 -0.001,-0.087 -0.004,-0.098c-0.002,-0.012 -0.006,-0.02 -0.011,-0.024c-0.005,-0.004 -0.012,-0.007 -0.02,-0.007c-0.009,0 -0.02,0.003 -0.033,0.008l-0.007,-0.018l0.135,-0.054l0.021,-0l-0,0.094Z" style="fill:#4d4d4d;fill-rule:nonzero;"/></g><g transform="matrix(10.1392,0,0,10.5665,22.526,14.0041)"><path d="M0.151,-0.163c-0.027,-0.013 -0.048,-0.032 -0.063,-0.056c-0.015,-0.024 -0.022,-0.05 -0.022,-0.079c-0,-0.045 0.017,-0.083 0.05,-0.115c0.033,-0.031 0.076,-0.047 0.128,-0.047c0.043,-0 0.08,0.01 0.111,0.031l0.095,-0c0.014,-0 0.022,0 0.024,0.001c0.002,0.001 0.004,0.002 0.005,0.004c0.002,0.003 0.003,0.008 0.003,0.016c-0,0.008 -0.001,0.014 -0.003,0.017c-0,0.002 -0.002,0.003 -0.005,0.004c-0.002,0.001 -0.01,0.002 -0.024,0.002l-0.058,-0c0.018,0.023 0.027,0.053 0.027,0.09c-0,0.041 -0.016,0.077 -0.048,0.107c-0.032,0.029 -0.075,0.044 -0.128,0.044c-0.022,-0 -0.045,-0.003 -0.068,-0.01c-0.015,0.013 -0.024,0.023 -0.029,0.033c-0.005,0.009 -0.008,0.017 -0.008,0.023c0,0.006 0.003,0.011 0.008,0.016c0.006,0.006 0.016,0.009 0.032,0.012c0.009,0.001 0.032,0.002 0.068,0.003c0.067,0.002 0.111,0.004 0.13,0.007c0.031,0.004 0.055,0.015 0.073,0.034c0.018,0.018 0.027,0.04 0.027,0.067c0,0.037 -0.017,0.071 -0.052,0.104c-0.05,0.047 -0.117,0.071 -0.198,0.071c-0.063,-0 -0.116,-0.014 -0.16,-0.043c-0.024,-0.016 -0.036,-0.033 -0.036,-0.05c-0,-0.008 0.002,-0.016 0.005,-0.024c0.006,-0.012 0.017,-0.029 0.034,-0.05c0.003,-0.003 0.019,-0.021 0.05,-0.053c-0.017,-0.01 -0.029,-0.019 -0.036,-0.027c-0.007,-0.008 -0.01,-0.017 -0.01,-0.027c-0,-0.011 0.004,-0.025 0.014,-0.04c0.009,-0.015 0.03,-0.037 0.064,-0.065Zm0.085,-0.274c-0.024,-0 -0.044,0.01 -0.061,0.029c-0.016,0.019 -0.024,0.048 -0.024,0.088c-0,0.052 0.011,0.091 0.033,0.12c0.017,0.021 0.038,0.032 0.065,0.032c0.024,0 0.045,-0.009 0.061,-0.028c0.016,-0.018 0.023,-0.047 0.023,-0.087c0,-0.052 -0.011,-0.092 -0.033,-0.122c-0.017,-0.021 -0.038,-0.032 -0.064,-0.032Zm-0.09,0.437c-0.015,0.017 -0.027,0.032 -0.035,0.046c-0.007,0.015 -0.011,0.028 -0.011,0.04c-0,0.016 0.009,0.029 0.028,0.041c0.032,0.02 0.08,0.03 0.141,0.03c0.059,0 0.102,-0.01 0.13,-0.031c0.028,-0.02 0.041,-0.043 0.041,-0.066c0,-0.017 -0.008,-0.029 -0.024,-0.036c-0.017,-0.007 -0.051,-0.011 -0.101,-0.013c-0.073,-0.002 -0.13,-0.005 -0.169,-0.011Z" style="fill:#4d4d4d;fill-rule:nonzero;"/></g><g transform="matrix(10.1392,0,0,10.5665,27.5956,14.0041)"><path d="M0.106,-0.279c0,0.067 0.016,0.119 0.049,0.156c0.032,0.038 0.071,0.057 0.115,0.057c0.029,0 0.054,-0.008 0.076,-0.024c0.022,-0.016 0.04,-0.044 0.054,-0.083l0.016,0.01c-0.007,0.045 -0.027,0.085 -0.06,0.122c-0.033,0.036 -0.074,0.055 -0.124,0.055c-0.053,-0 -0.099,-0.021 -0.138,-0.063c-0.038,-0.042 -0.057,-0.098 -0.057,-0.169c0,-0.076 0.02,-0.136 0.059,-0.179c0.039,-0.043 0.088,-0.064 0.148,-0.064c0.05,0 0.091,0.017 0.123,0.05c0.032,0.033 0.049,0.077 0.049,0.132l-0.31,0Zm0,-0.028l0.207,-0c-0.001,-0.029 -0.005,-0.049 -0.01,-0.061c-0.008,-0.018 -0.02,-0.032 -0.036,-0.043c-0.016,-0.01 -0.033,-0.015 -0.051,-0.015c-0.027,-0 -0.051,0.01 -0.072,0.031c-0.022,0.021 -0.034,0.05 -0.038,0.088Z" style="fill:#4d4d4d;fill-rule:nonzero;"/></g><g transform="matrix(10.1392,0,0,10.5665,32.0958,14.0041)"><path d="M0.162,-0.366c0.052,-0.063 0.102,-0.094 0.15,-0.094c0.024,-0 0.045,0.006 0.063,0.018c0.017,0.012 0.031,0.032 0.042,0.06c0.007,0.02 0.01,0.05 0.01,0.09l0,0.191c0,0.028 0.003,0.047 0.007,0.058c0.004,0.008 0.009,0.014 0.017,0.019c0.008,0.004 0.023,0.006 0.045,0.006l-0,0.018l-0.222,-0l0,-0.018l0.01,0c0.021,0 0.035,-0.003 0.043,-0.009c0.009,-0.006 0.014,-0.016 0.018,-0.028c0.001,-0.005 0.002,-0.02 0.002,-0.046l-0,-0.183c-0,-0.041 -0.006,-0.07 -0.016,-0.089c-0.011,-0.018 -0.029,-0.027 -0.054,-0.027c-0.038,-0 -0.077,0.021 -0.115,0.063l-0,0.236c-0,0.03 0.001,0.049 0.005,0.056c0.005,0.01 0.011,0.016 0.019,0.021c0.008,0.004 0.024,0.006 0.048,0.006l0,0.018l-0.221,-0l0,-0.018l0.01,0c0.023,0 0.038,-0.005 0.046,-0.017c0.008,-0.011 0.012,-0.034 0.012,-0.066l0,-0.166c0,-0.054 -0.001,-0.087 -0.004,-0.098c-0.002,-0.012 -0.006,-0.02 -0.011,-0.024c-0.005,-0.004 -0.012,-0.007 -0.02,-0.007c-0.009,0 -0.02,0.003 -0.033,0.008l-0.007,-0.018l0.135,-0.054l0.021,-0l-0,0.094Z" style="fill:#4d4d4d;fill-rule:nonzero;"/></g><g transform="matrix(10.1392,0,0,10.5665,37.1654,14.0041)"><path d="M0.25,-0.46c0.068,-0 0.122,0.025 0.163,0.077c0.035,0.044 0.052,0.094 0.052,0.151c0,0.04 -0.009,0.081 -0.028,0.122c-0.02,0.041 -0.046,0.072 -0.08,0.092c-0.034,0.021 -0.071,0.032 -0.112,0.032c-0.068,-0 -0.121,-0.027 -0.161,-0.081c-0.034,-0.045 -0.05,-0.096 -0.05,-0.152c-0,-0.041 0.01,-0.082 0.03,-0.123c0.021,-0.04 0.047,-0.07 0.081,-0.089c0.033,-0.02 0.068,-0.029 0.105,-0.029Zm-0.015,0.031c-0.017,0 -0.035,0.005 -0.052,0.016c-0.018,0.01 -0.032,0.028 -0.042,0.054c-0.011,0.025 -0.016,0.058 -0.016,0.099c-0,0.065 0.012,0.121 0.038,0.168c0.026,0.047 0.06,0.071 0.103,0.071c0.031,0 0.057,-0.013 0.078,-0.039c0.02,-0.026 0.031,-0.071 0.031,-0.134c-0,-0.08 -0.018,-0.142 -0.052,-0.188c-0.023,-0.031 -0.052,-0.047 -0.088,-0.047Z" style="fill:#4d4d4d;fill-rule:nonzero;"/></g><g transform="matrix(10.1392,0,0,10.5665,42.235,14.0041)"><path d="M0.32,-0.46l0,0.152l-0.016,-0c-0.012,-0.048 -0.028,-0.081 -0.047,-0.098c-0.02,-0.017 -0.044,-0.026 -0.074,-0.026c-0.023,0 -0.042,0.006 -0.056,0.018c-0.014,0.012 -0.021,0.026 -0.021,0.04c0,0.019 0.006,0.034 0.016,0.047c0.01,0.014 0.031,0.028 0.062,0.043l0.071,0.034c0.066,0.033 0.099,0.075 0.099,0.128c0,0.041 -0.015,0.073 -0.046,0.098c-0.031,0.025 -0.065,0.038 -0.103,0.038c-0.028,-0 -0.059,-0.005 -0.094,-0.015c-0.011,-0.003 -0.02,-0.005 -0.027,-0.005c-0.007,0 -0.013,0.004 -0.017,0.013l-0.016,-0l-0,-0.16l0.016,0c0.009,0.046 0.026,0.08 0.052,0.103c0.026,0.023 0.055,0.035 0.087,0.035c0.022,-0 0.04,-0.007 0.054,-0.02c0.015,-0.013 0.022,-0.029 0.022,-0.048c-0,-0.022 -0.008,-0.041 -0.024,-0.056c-0.016,-0.015 -0.047,-0.035 -0.094,-0.058c-0.048,-0.024 -0.079,-0.045 -0.093,-0.064c-0.015,-0.018 -0.022,-0.042 -0.022,-0.07c-0,-0.037 0.012,-0.068 0.038,-0.092c0.025,-0.025 0.058,-0.037 0.098,-0.037c0.017,-0 0.038,0.003 0.064,0.011c0.016,0.005 0.027,0.007 0.033,0.007c0.005,0 0.009,-0.001 0.012,-0.003c0.003,-0.003 0.006,-0.008 0.01,-0.015l0.016,-0Z" style="fill:#4d4d4d;fill-rule:nonzero;"/></g><g transform="matrix(10.1392,0,0,10.5665,46.1807,14.0041)"><path d="M0.32,-0.46l0,0.152l-0.016,-0c-0.012,-0.048 -0.028,-0.081 -0.047,-0.098c-0.02,-0.017 -0.044,-0.026 -0.074,-0.026c-0.023,0 -0.042,0.006 -0.056,0.018c-0.014,0.012 -0.021,0.026 -0.021,0.04c0,0.019 0.006,0.034 0.016,0.047c0.01,0.014 0.031,0.028 0.062,0.043l0.071,0.034c0.066,0.033 0.099,0.075 0.099,0.128c0,0.041 -0.015,0.073 -0.046,0.098c-0.031,0.025 -0.065,0.038 -0.103,0.038c-0.028,-0 -0.059,-0.005 -0.094,-0.015c-0.011,-0.003 -0.02,-0.005 -0.027,-0.005c-0.007,0 -0.013,0.004 -0.017,0.013l-0.016,-0l-0,-0.16l0.016,0c0.009,0.046 0.026,0.08 0.052,0.103c0.026,0.023 0.055,0.035 0.087,0.035c0.022,-0 0.04,-0.007 0.054,-0.02c0.015,-0.013 0.022,-0.029 0.022,-0.048c-0,-0.022 -0.008,-0.041 -0.024,-0.056c-0.016,-0.015 -0.047,-0.035 -0.094,-0.058c-0.048,-0.024 -0.079,-0.045 -0.093,-0.064c-0.015,-0.018 -0.022,-0.042 -0.022,-0.07c-0,-0.037 0.012,-0.068 0.038,-0.092c0.025,-0.025 0.058,-0.037 0.098,-0.037c0.017,-0 0.038,0.003 0.064,0.011c0.016,0.005 0.027,0.007 0.033,0.007c0.005,0 0.009,-0.001 0.012,-0.003c0.003,-0.003 0.006,-0.008 0.01,-0.015l0.016,-0Z" style="fill:#4d4d4d;fill-rule:nonzero;"/></g><g transform="matrix(10.1392,0,0,10.5665,50.1265,14.0041)"><path d="M0.106,-0.279c0,0.067 0.016,0.119 0.049,0.156c0.032,0.038 0.071,0.057 0.115,0.057c0.029,0 0.054,-0.008 0.076,-0.024c0.022,-0.016 0.04,-0.044 0.054,-0.083l0.016,0.01c-0.007,0.045 -0.027,0.085 -0.06,0.122c-0.033,0.036 -0.074,0.055 -0.124,0.055c-0.053,-0 -0.099,-0.021 -0.138,-0.063c-0.038,-0.042 -0.057,-0.098 -0.057,-0.169c0,-0.076 0.02,-0.136 0.059,-0.179c0.039,-0.043 0.088,-0.064 0.148,-0.064c0.05,0 0.091,0.017 0.123,0.05c0.032,0.033 0.049,0.077 0.049,0.132l-0.31,0Zm0,-0.028l0.207,-0c-0.001,-0.029 -0.005,-0.049 -0.01,-0.061c-0.008,-0.018 -0.02,-0.032 -0.036,-0.043c-0.016,-0.01 -0.033,-0.015 -0.051,-0.015c-0.027,-0 -0.051,0.01 -0.072,0.031c-0.022,0.021 -0.034,0.05 -0.038,0.088Z" style="fill:#4d4d4d;fill-rule:nonzero;"/></g><g transform="matrix(10.1392,0,0,10.5665,54.6267,14.0041)"><path d="M0.162,-0.366c0.052,-0.063 0.102,-0.094 0.15,-0.094c0.024,-0 0.045,0.006 0.063,0.018c0.017,0.012 0.031,0.032 0.042,0.06c0.007,0.02 0.01,0.05 0.01,0.09l0,0.191c0,0.028 0.003,0.047 0.007,0.058c0.004,0.008 0.009,0.014 0.017,0.019c0.008,0.004 0.023,0.006 0.045,0.006l-0,0.018l-0.222,-0l0,-0.018l0.01,0c0.021,0 0.035,-0.003 0.043,-0.009c0.009,-0.006 0.014,-0.016 0.018,-0.028c0.001,-0.005 0.002,-0.02 0.002,-0.046l-0,-0.183c-0,-0.041 -0.006,-0.07 -0.016,-0.089c-0.011,-0.018 -0.029,-0.027 -0.054,-0.027c-0.038,-0 -0.077,0.021 -0.115,0.063l-0,0.236c-0,0.03 0.001,0.049 0.005,0.056c0.005,0.01 0.011,0.016 0.019,0.021c0.008,0.004 0.024,0.006 0.048,0.006l0,0.018l-0.221,-0l0,-0.018l0.01,0c0.023,0 0.038,-0.005 0.046,-0.017c0.008,-0.011 0.012,-0.034 0.012,-0.066l0,-0.166c0,-0.054 -0.001,-0.087 -0.004,-0.098c-0.002,-0.012 -0.006,-0.02 -0.011,-0.024c-0.005,-0.004 -0.012,-0.007 -0.02,-0.007c-0.009,0 -0.02,0.003 -0.033,0.008l-0.007,-0.018l0.135,-0.054l0.021,-0l-0,0.094Z" style="fill:#4d4d4d;fill-rule:nonzero;"/></g><g transform="matrix(10.1392,0,0,10.5665,59.6963,14.0041)"><path d="M0.32,-0.46l0,0.152l-0.016,-0c-0.012,-0.048 -0.028,-0.081 -0.047,-0.098c-0.02,-0.017 -0.044,-0.026 -0.074,-0.026c-0.023,0 -0.042,0.006 -0.056,0.018c-0.014,0.012 -0.021,0.026 -0.021,0.04c0,0.019 0.006,0.034 0.016,0.047c0.01,0.014 0.031,0.028 0.062,0.043l0.071,0.034c0.066,0.033 0.099,0.075 0.099,0.128c0,0.041 -0.015,0.073 -0.046,0.098c-0.031,0.025 -0.065,0.038 -0.103,0.038c-0.028,-0 -0.059,-0.005 -0.094,-0.015c-0.011,-0.003 -0.02,-0.005 -0.027,-0.005c-0.007,0 -0.013,0.004 -0.017,0.013l-0.016,-0l-0,-0.16l0.016,0c0.009,0.046 0.026,0.08 0.052,0.103c0.026,0.023 0.055,0.035 0.087,0.035c0.022,-0 0.04,-0.007 0.054,-0.02c0.015,-0.013 0.022,-0.029 0.022,-0.048c-0,-0.022 -0.008,-0.041 -0.024,-0.056c-0.016,-0.015 -0.047,-0.035 -0.094,-0.058c-0.048,-0.024 -0.079,-0.045 -0.093,-0.064c-0.015,-0.018 -0.022,-0.042 -0.022,-0.07c-0,-0.037 0.012,-0.068 0.038,-0.092c0.025,-0.025 0.058,-0.037 0.098,-0.037c0.017,-0 0.038,0.003 0.064,0.011c0.016,0.005 0.027,0.007 0.033,0.007c0.005,0 0.009,-0.001 0.012,-0.003c0.003,-0.003 0.006,-0.008 0.01,-0.015l0.016,-0Z" style="fill:#4d4d4d;fill-rule:nonzero;"/></g><g transform="matrix(10.1392,0,0,10.5665,63.6421,14.0041)"><path d="M0.411,-0.17c-0.012,0.059 -0.036,0.104 -0.071,0.136c-0.035,0.032 -0.074,0.048 -0.116,0.048c-0.051,-0 -0.095,-0.022 -0.133,-0.064c-0.038,-0.043 -0.057,-0.101 -0.057,-0.173c0,-0.07 0.021,-0.128 0.063,-0.172c0.042,-0.043 0.092,-0.065 0.151,-0.065c0.044,-0 0.08,0.011 0.108,0.034c0.028,0.024 0.042,0.048 0.042,0.073c0,0.012 -0.004,0.022 -0.012,0.03c-0.008,0.008 -0.019,0.011 -0.033,0.011c-0.019,0 -0.034,-0.006 -0.043,-0.018c-0.006,-0.007 -0.01,-0.02 -0.011,-0.039c-0.002,-0.019 -0.009,-0.034 -0.02,-0.044c-0.012,-0.01 -0.027,-0.015 -0.048,-0.015c-0.032,0 -0.058,0.012 -0.078,0.036c-0.027,0.032 -0.04,0.074 -0.04,0.127c0,0.053 0.013,0.1 0.04,0.141c0.026,0.041 0.061,0.062 0.106,0.062c0.032,-0.001 0.06,-0.011 0.086,-0.033c0.018,-0.015 0.035,-0.042 0.052,-0.082l0.014,0.007Z" style="fill:#4d4d4d;fill-rule:nonzero;"/></g><g transform="matrix(10.1392,0,0,10.5665,68.1423,14.0041)"><path d="M0.163,-0.694l-0,0.327c0.036,-0.04 0.064,-0.065 0.086,-0.077c0.021,-0.011 0.042,-0.016 0.063,-0.016c0.025,-0 0.047,0.007 0.065,0.021c0.019,0.014 0.032,0.036 0.041,0.065c0.006,0.021 0.009,0.059 0.009,0.115l0,0.158c0,0.028 0.003,0.048 0.007,0.058c0.003,0.008 0.009,0.014 0.017,0.019c0.007,0.004 0.022,0.006 0.043,0.006l-0,0.018l-0.22,0l-0,-0.018l0.01,0c0.021,0 0.035,-0.003 0.044,-0.009c0.008,-0.006 0.013,-0.016 0.017,-0.028c0.001,-0.005 0.001,-0.021 0.001,-0.046l0,-0.158c0,-0.049 -0.002,-0.081 -0.007,-0.096c-0.005,-0.016 -0.013,-0.027 -0.025,-0.035c-0.011,-0.008 -0.024,-0.011 -0.04,-0.011c-0.016,-0 -0.032,0.004 -0.049,0.012c-0.018,0.009 -0.038,0.026 -0.062,0.052l-0,0.236c-0,0.031 0.001,0.05 0.005,0.057c0.003,0.008 0.009,0.014 0.019,0.019c0.009,0.005 0.025,0.007 0.048,0.007l-0,0.018l-0.222,0l0,-0.018c0.02,0 0.036,-0.003 0.047,-0.009c0.007,-0.003 0.012,-0.009 0.016,-0.018c0.004,-0.01 0.006,-0.028 0.006,-0.056l-0,-0.405c-0,-0.051 -0.002,-0.082 -0.004,-0.094c-0.003,-0.012 -0.006,-0.02 -0.011,-0.024c-0.005,-0.004 -0.012,-0.006 -0.021,-0.006c-0.006,-0 -0.018,0.002 -0.033,0.007l-0.007,-0.017l0.134,-0.054l0.023,-0Z" style="fill:#4d4d4d;fill-rule:nonzero;"/></g><g transform="matrix(10.1392,0,0,10.5665,73.2119,14.0041)"><path d="M0.285,-0.064c-0.046,0.035 -0.075,0.056 -0.087,0.061c-0.017,0.008 -0.036,0.012 -0.056,0.012c-0.031,0 -0.056,-0.01 -0.076,-0.031c-0.02,-0.022 -0.03,-0.049 -0.03,-0.084c-0,-0.022 0.005,-0.041 0.014,-0.057c0.014,-0.022 0.037,-0.043 0.07,-0.062c0.033,-0.02 0.088,-0.043 0.165,-0.071l-0,-0.018c-0,-0.045 -0.007,-0.075 -0.022,-0.092c-0.014,-0.016 -0.034,-0.025 -0.061,-0.025c-0.021,0 -0.037,0.006 -0.049,0.017c-0.013,0.011 -0.019,0.024 -0.019,0.038l0.001,0.028c0,0.015 -0.004,0.027 -0.011,0.035c-0.008,0.008 -0.018,0.012 -0.03,0.012c-0.012,0 -0.022,-0.004 -0.03,-0.012c-0.007,-0.009 -0.011,-0.02 -0.011,-0.035c-0,-0.028 0.014,-0.054 0.043,-0.077c0.028,-0.024 0.069,-0.035 0.12,-0.035c0.04,-0 0.073,0.006 0.098,0.02c0.019,0.01 0.033,0.025 0.042,0.047c0.006,0.014 0.009,0.043 0.009,0.086l0,0.152c0,0.042 0.001,0.068 0.003,0.078c0.001,0.01 0.004,0.016 0.008,0.019c0.003,0.004 0.008,0.005 0.013,0.005c0.005,0 0.009,-0.001 0.013,-0.003c0.007,-0.004 0.02,-0.016 0.04,-0.036l-0,0.028c-0.037,0.048 -0.071,0.073 -0.105,0.073c-0.016,-0 -0.028,-0.006 -0.038,-0.017c-0.009,-0.011 -0.014,-0.03 -0.014,-0.056Zm-0,-0.032l-0,-0.171c-0.049,0.02 -0.081,0.034 -0.096,0.042c-0.025,0.014 -0.044,0.029 -0.055,0.045c-0.011,0.015 -0.016,0.033 -0.016,0.051c-0,0.024 0.007,0.043 0.021,0.058c0.014,0.016 0.03,0.024 0.048,0.024c0.025,-0 0.057,-0.017 0.098,-0.049Z" style="fill:#4d4d4d;fill-rule:nonzero;"/></g><g transform="matrix(10.1392,0,0,10.5665,77.7121,14.0041)"><path d="M0.206,-0.412l0,0.294c0,0.042 0.005,0.068 0.014,0.079c0.012,0.014 0.028,0.021 0.048,0.021l0.041,0l-0,0.018l-0.267,0l-0,-0.018l0.02,0c0.013,0 0.024,-0.003 0.035,-0.009c0.011,-0.007 0.018,-0.016 0.022,-0.027c0.004,-0.011 0.006,-0.032 0.006,-0.064l0,-0.294l-0.086,-0l-0,-0.035l0.086,-0l0,-0.03c0,-0.044 0.008,-0.082 0.022,-0.113c0.014,-0.031 0.036,-0.056 0.066,-0.075c0.029,-0.019 0.062,-0.028 0.099,-0.028c0.034,-0 0.066,0.011 0.094,0.033c0.019,0.014 0.029,0.031 0.029,0.049c-0,0.01 -0.005,0.019 -0.013,0.028c-0.009,0.008 -0.018,0.013 -0.027,0.013c-0.008,-0 -0.016,-0.003 -0.024,-0.008c-0.008,-0.006 -0.019,-0.017 -0.031,-0.035c-0.012,-0.018 -0.023,-0.03 -0.033,-0.036c-0.01,-0.006 -0.021,-0.009 -0.034,-0.009c-0.015,-0 -0.027,0.004 -0.038,0.012c-0.01,0.008 -0.018,0.02 -0.022,0.037c-0.005,0.017 -0.007,0.06 -0.007,0.13l0,0.032l0.115,-0l0,0.035l-0.115,-0Z" style="fill:#4d4d4d;fill-rule:nonzero;"/></g><g transform="matrix(10.1392,0,0,10.5665,81.0886,14.0041)"><path d="M0.161,-0.594l0,0.147l0.105,-0l-0,0.034l-0.105,-0l0,0.29c0,0.029 0.004,0.048 0.013,0.059c0.008,0.01 0.019,0.015 0.032,0.015c0.01,-0 0.021,-0.004 0.031,-0.01c0.01,-0.007 0.018,-0.017 0.023,-0.03l0.019,0c-0.011,0.032 -0.027,0.056 -0.048,0.072c-0.021,0.016 -0.042,0.024 -0.064,0.024c-0.015,0 -0.03,-0.004 -0.044,-0.012c-0.015,-0.008 -0.025,-0.02 -0.032,-0.036c-0.007,-0.015 -0.01,-0.039 -0.01,-0.071l-0,-0.301l-0.071,-0l-0,-0.016c0.018,-0.007 0.036,-0.019 0.055,-0.037c0.018,-0.017 0.035,-0.037 0.05,-0.06c0.007,-0.013 0.018,-0.035 0.031,-0.068l0.015,-0Z" style="fill:#4d4d4d;fill-rule:nonzero;"/></g><g transform="matrix(10.1392,0,0,10.5665,83.9055,14.0041)"><path d="M0.106,-0.279c0,0.067 0.016,0.119 0.049,0.156c0.032,0.038 0.071,0.057 0.115,0.057c0.029,0 0.054,-0.008 0.076,-0.024c0.022,-0.016 0.04,-0.044 0.054,-0.083l0.016,0.01c-0.007,0.045 -0.027,0.085 -0.06,0.122c-0.033,0.036 -0.074,0.055 -0.124,0.055c-0.053,-0 -0.099,-0.021 -0.138,-0.063c-0.038,-0.042 -0.057,-0.098 -0.057,-0.169c0,-0.076 0.02,-0.136 0.059,-0.179c0.039,-0.043 0.088,-0.064 0.148,-0.064c0.05,0 0.091,0.017 0.123,0.05c0.032,0.033 0.049,0.077 0.049,0.132l-0.31,0Zm0,-0.028l0.207,-0c-0.001,-0.029 -0.005,-0.049 -0.01,-0.061c-0.008,-0.018 -0.02,-0.032 -0.036,-0.043c-0.016,-0.01 -0.033,-0.015 -0.051,-0.015c-0.027,-0 -0.051,0.01 -0.072,0.031c-0.022,0.021 -0.034,0.05 -0.038,0.088Z" style="fill:#4d4d4d;fill-rule:nonzero;"/></g><g transform="matrix(10.1392,0,0,10.5665,88.4058,14.0041)"><path d="M0.162,-0.366c0.052,-0.063 0.102,-0.094 0.15,-0.094c0.024,-0 0.045,0.006 0.063,0.018c0.017,0.012 0.031,0.032 0.042,0.06c0.007,0.02 0.01,0.05 0.01,0.09l0,0.191c0,0.028 0.003,0.047 0.007,0.058c0.004,0.008 0.009,0.014 0.017,0.019c0.008,0.004 0.023,0.006 0.045,0.006l-0,0.018l-0.222,-0l0,-0.018l0.01,0c0.021,0 0.035,-0.003 0.043,-0.009c0.009,-0.006 0.014,-0.016 0.018,-0.028c0.001,-0.005 0.002,-0.02 0.002,-0.046l-0,-0.183c-0,-0.041 -0.006,-0.07 -0.016,-0.089c-0.011,-0.018 -0.029,-0.027 -0.054,-0.027c-0.038,-0 -0.077,0.021 -0.115,0.063l-0,0.236c-0,0.03 0.001,0.049 0.005,0.056c0.005,0.01 0.011,0.016 0.019,0.021c0.008,0.004 0.024,0.006 0.048,0.006l0,0.018l-0.221,-0l0,-0.018l0.01,0c0.023,0 0.038,-0.005 0.046,-0.017c0.008,-0.011 0.012,-0.034 0.012,-0.066l0,-0.166c0,-0.054 -0.001,-0.087 -0.004,-0.098c-0.002,-0.012 -0.006,-0.02 -0.011,-0.024c-0.005,-0.004 -0.012,-0.007 -0.02,-0.007c-0.009,0 -0.02,0.003 -0.033,0.008l-0.007,-0.018l0.135,-0.054l0.021,-0l-0,0.094Z" style="fill:#4d4d4d;fill-rule:nonzero;"/></g></g></g></svg>