<?xml version="1.0" encoding="UTF-8" standalone="no"?><!DOCTYPE svg PUBLIC "-//W3C//DTD SVG 1.1//EN" "http://www.w3.org/Graphics/SVG/1.1/DTD/svg11.dtd"><svg width="100%" height="100%" viewBox="0 0 24 24" version="1.1" xmlns="http://www.w3.org/2000/svg" xmlns:xlink="http://www.w3.org/1999/xlink" xml:space="preserve" xmlns:serif="http://www.serif.com/" style="fill-rule:evenodd;clip-rule:evenodd;stroke-linejoin:round;stroke-miterlimit:2;"><g><path d="M18.508,12.641c-0.05,-0.039 -0.114,-0.054 -0.175,-0.042c-0.06,0.017 -0.109,0.06 -0.134,0.117l-1.561,3.106c-0.029,0.054 -0.029,0.12 0,0.174c0.021,0.057 0.068,0.1 0.125,0.117c0.39,0.122 0.768,0.281 1.127,0.475c0.051,0.021 0.108,0.021 0.159,-0c0.054,-0.014 0.1,-0.05 0.125,-0.1l1.519,-3.04c0.03,-0.054 0.03,-0.12 0,-0.175c-0.025,-0.059 -0.078,-0.102 -0.142,-0.116c-0.378,-0.103 -0.732,-0.278 -1.043,-0.516Z" style="fill:#122774;fill-rule:nonzero;"/><path d="M13.333,5.846c-0.028,-0.014 -0.06,-0.021 -0.091,-0.021c-0.084,-0 -0.161,0.051 -0.193,0.129c-0.154,0.367 -0.365,0.707 -0.626,1.007c-0.028,0.058 -0.028,0.126 0,0.184c0.012,0.061 0.052,0.114 0.109,0.141l4.716,2.407c0.054,0.029 0.12,0.029 0.175,-0c0.057,-0.025 0.1,-0.074 0.117,-0.133c0.106,-0.38 0.288,-0.734 0.534,-1.041c0.042,-0.048 0.058,-0.114 0.042,-0.175c-0.015,-0.06 -0.055,-0.112 -0.109,-0.142l-4.674,-2.356Z" style="fill:#122774;fill-rule:nonzero;"/><path d="M18.642,10.351c-0,0.913 0.753,1.665 1.669,1.665c0.916,0 1.669,-0.752 1.669,-1.665c0,-0.914 -0.753,-1.666 -1.669,-1.666c-0.916,0 -1.669,0.752 -1.669,1.666" style="fill:#122774;fill-rule:nonzero;"/><path d="M11.38,2.756c-0.471,-0.478 -1.115,-0.747 -1.787,-0.747c-0.671,-0 -1.315,0.269 -1.786,0.747l-0.668,0.658c-0.042,0.045 -0.105,0.067 -0.167,0.058l-3.247,-0.466c-0.072,-0.01 -0.144,-0.016 -0.217,-0.016c-0.838,0 -1.528,0.688 -1.528,1.524c0,0.406 0.163,0.796 0.452,1.082l6.093,6.087c0.289,0.313 0.697,0.491 1.123,0.491c0.838,0 1.528,-0.688 1.528,-1.524c-0,-0.1 -0.01,-0.201 -0.03,-0.299l-0.468,-3.256c-0.006,-0.068 0.018,-0.136 0.067,-0.184l0.66,-0.657c0.941,-0.972 0.93,-2.539 -0.025,-3.498Z" style="fill:#122774;fill-rule:nonzero;"/><path d="M9.234,20.343c-0.045,0.132 -0.068,0.269 -0.068,0.408c0,0.69 0.569,1.258 1.261,1.258c0,-0 0.001,-0 0.001,-0l8.08,-0c0.004,-0 0.009,-0 0.013,-0c0.687,-0 1.252,-0.564 1.252,-1.249c0,-0.142 -0.024,-0.283 -0.071,-0.417c-0.859,-2.092 -2.954,-3.429 -5.217,-3.331c-2.276,-0.112 -4.388,1.228 -5.251,3.331Z" style="fill:#122774;fill-rule:nonzero;"/></g></svg>