<?xml version="1.0" encoding="UTF-8" standalone="no"?>
<!DOCTYPE svg PUBLIC "-//W3C//DTD SVG 1.1//EN" "http://www.w3.org/Graphics/SVG/1.1/DTD/svg11.dtd">
<svg width="100%" height="100%" viewBox="0 0 934 200" version="1.1" xmlns="http://www.w3.org/2000/svg" xmlns:xlink="http://www.w3.org/1999/xlink" xml:space="preserve" xmlns:serif="http://www.serif.com/" style="fill-rule:evenodd;clip-rule:evenodd;stroke-linejoin:round;stroke-miterlimit:2;">
    <path d="M341.692,52.963c0.176,-3.53 0.176,-7.59 0.176,-11.12c-4.942,0.177 -10.943,0.177 -16.414,0.177c-8.119,-0 -17.121,0.176 -24.71,0.176c-0.177,3.354 -0.177,7.413 -0.177,10.943l13.767,0.53c0.53,-0 0.706,0.176 0.53,0.882c-1.589,10.767 -5.295,28.946 -7.413,39.536c-2.471,11.296 -5.295,25.593 -8.472,39.713l-1.412,-0c-6.707,-25.063 -16.944,-63.893 -23.122,-86.309c-3.706,0 -13.237,0 -15.355,0.353c-6.354,20.474 -19.415,64.952 -26.122,85.603l-1.236,-0c-2.824,-16.062 -5.118,-29.829 -7.589,-44.302c-2.295,-12.531 -4.413,-27.004 -5.472,-35.653l15.003,-0.353c-0,-3.706 0.176,-7.589 0.176,-11.119l-48.184,-0c-0.177,3.53 -0.177,7.413 -0.177,10.943l9.531,0.529c0.53,0 0.883,0.177 0.883,0.706c3.177,14.65 6.354,29.652 9.531,43.949c4.589,19.944 9.178,39.536 14.296,60.186c6.531,0 13.767,0 16.415,-0.176c8.119,-22.416 17.826,-49.597 26.651,-76.425l0.883,0c7.589,27.358 15.355,52.597 23.121,76.601c7.766,0 14.297,0 16.591,-0.176c5.825,-18.886 12.002,-40.066 16.768,-58.422c3.883,-14.826 7.942,-29.475 12.355,-46.243l9.178,-0.529Z" style="fill:#094258;fill-rule:nonzero;"/>
    <path d="M353.694,145.625c-0.177,3.53 -0.177,7.413 -0.177,10.943l22.239,0c24.181,0 47.655,0 56.128,0.177c2.294,-9.708 4.412,-19.592 6.354,-29.123c-3.883,-0.882 -8.296,-1.765 -12.532,-2.471l-5.472,15.356c-0.706,1.941 -1.588,3 -3.353,3.353c-2.648,0.706 -10.414,1.236 -21.71,1.236c-8.825,-0 -9.531,-0.53 -9.531,-3.707l0.177,-37.594c8.119,-0.177 15.355,-0 22.062,0.176c2.471,0 3.53,0.883 3.707,3.53l0.706,8.296c4.059,-0 8.295,-0.177 12.178,-0.353l0,-16.768c0.177,-6.001 0.177,-12.002 0.353,-17.473c-3.706,-0.177 -8.119,-0.177 -12.178,-0.177l-0.883,7.766c-0.353,2.118 -1.059,3.354 -3.353,3.354c-7.59,0.176 -14.473,0.176 -22.592,0.353l0.176,-39.183l3.707,-0c11.296,-0 20.297,0.529 24.004,0.882c2.647,0.353 3.53,1.412 3.883,3.001l2.824,14.649c4.236,-0.353 8.825,-1.059 12.532,-1.412c-0.353,-9.707 -0.883,-19.238 -1.589,-28.593l-77.66,0c-0.177,3.53 -0.353,7.413 -0.353,11.12l11.825,0.353l0,91.074c0,0.353 -0.176,0.706 -0.706,0.706l-10.766,0.529Z" style="fill:#094258;fill-rule:nonzero;"/>
    <path d="M465.948,53.492l0,91.074c0,0.353 -0.353,0.53 -0.706,0.53l-10.237,0.529c0,3.53 0,7.237 -0.176,10.943l43.595,0c0,-3.706 0.177,-7.413 0.177,-10.943l-12.708,-0.529l0.176,-35.124c0.706,-0.176 2.648,-0.353 7.59,-0.353c6.707,0 10.237,2.118 13.59,7.943c4.766,8.648 14.473,31.064 19.945,39.183c2.824,-0 12.531,-0.177 15.885,-0.177c3.706,-0.176 9.178,-0.176 12.355,-0.176c-0,-3.707 0.176,-7.413 0.176,-10.943l-9.884,-0.706c-2.118,-0.177 -3.53,-1.942 -7.766,-10.237c-8.648,-16.944 -12.884,-27.005 -21.003,-30.711l-0,-0.883c13.061,-5.118 23.121,-16.061 23.121,-31.24c0,-12.002 -9.884,-24.181 -23.121,-27.358c-9.355,-2.471 -14.826,-2.647 -25.063,-2.647c-12.532,-0 -25.946,0.176 -36.712,0.353c-0.177,3.706 -0.177,7.413 -0.353,11.119l11.119,0.353Zm20.474,-0.353c1.059,-0.529 3.707,-0.706 8.296,-0.706c13.943,0 24.18,8.825 24.18,23.828c0,11.119 -7.589,22.592 -25.592,22.592c-3.883,-0 -6.354,-0 -7.237,-0.353l0.353,-45.361Z" style="fill:#094258;fill-rule:nonzero;"/>
    <path d="M562.141,145.449c-0.177,3.53 -0.177,7.589 -0.177,11.119c4.942,0 10.943,-0.176 16.768,-0.176c8.119,-0 16.944,0.176 24.18,0.176c0,-3.706 0.177,-7.766 0.177,-11.296l-15.709,-0.353c0,-23.827 0.177,-47.302 0.177,-71.306l1.235,0c21.71,32.829 44.302,63.893 59.834,84.367c5.648,0 11.649,-1.235 14.473,-2.471l0.706,-101.311c-0,-0.706 0.176,-0.882 0.529,-0.882l9.531,-0.53c0,-3.53 0.177,-7.413 0,-10.943c-4.942,0 -11.649,0.177 -17.65,0.177l-22.415,-0c-0,3.53 -0.177,7.413 -0.177,11.119l15.003,0.177c0.353,25.239 0.529,50.655 0.706,75.895l-1.059,0.176c-17.474,-27.181 -40.595,-62.128 -57.892,-87.367l-29.123,-0c-0.176,3.353 -0.176,7.413 -0.176,10.943l11.825,0.353l0.177,90.897c-0,0.53 -0.353,0.706 -0.706,0.706l-10.237,0.53Z" style="fill:#094258;fill-rule:nonzero;"/>
    <path d="M689.75,145.625c-0.176,3.53 -0.176,7.413 -0.176,10.943l22.239,0c24.18,0 47.655,0 56.127,0.177c2.294,-9.708 4.412,-19.592 6.354,-29.123c-3.883,-0.882 -8.296,-1.765 -12.532,-2.471l-5.471,15.356c-0.706,1.941 -1.589,3 -3.354,3.353c-2.647,0.706 -10.413,1.236 -21.709,1.236c-8.825,-0 -9.531,-0.53 -9.531,-3.707l0.176,-37.594c8.119,-0.177 15.356,-0 22.063,0.176c2.471,0 3.53,0.883 3.706,3.53l0.706,8.296c4.06,-0 8.296,-0.177 12.179,-0.353l-0,-16.768c0.176,-6.001 0.176,-12.002 0.353,-17.473c-3.707,-0.177 -8.119,-0.177 -12.179,-0.177l-0.882,7.766c-0.353,2.118 -1.059,3.354 -3.354,3.354c-7.589,0.176 -14.473,0.176 -22.592,0.353l0.177,-39.183l3.706,-0c11.296,-0 20.298,0.529 24.004,0.882c2.648,0.353 3.53,1.412 3.883,3.001l2.824,14.649c4.236,-0.353 8.825,-1.059 12.532,-1.412c-0.353,-9.707 -0.883,-19.238 -1.589,-28.593l-77.66,0c-0.176,3.53 -0.353,7.413 -0.353,11.12l11.826,0.353l-0,91.074c-0,0.353 -0.177,0.706 -0.706,0.706l-10.767,0.529Z" style="fill:#094258;fill-rule:nonzero;"/>
    <path d="M802.005,53.492l-0,91.074c-0,0.353 -0.353,0.53 -0.706,0.53l-10.237,0.529c-0,3.53 -0,7.237 -0.177,10.943l43.596,0c-0,-3.706 0.176,-7.413 0.176,-10.943l-12.708,-0.529l0.177,-35.124c0.706,-0.176 2.647,-0.353 7.589,-0.353c6.707,0 10.237,2.118 13.591,7.943c4.765,8.648 14.473,31.064 19.944,39.183c2.824,-0 12.532,-0.177 15.885,-0.177c3.707,-0.176 9.178,-0.176 12.355,-0.176c0,-3.707 0.177,-7.413 0.177,-10.943l-9.884,-0.706c-2.118,-0.177 -3.53,-1.942 -7.766,-10.237c-8.649,-16.944 -12.885,-27.005 -21.004,-30.711l0,-0.883c13.061,-5.118 23.122,-16.061 23.122,-31.24c-0,-12.002 -9.884,-24.181 -23.122,-27.358c-9.354,-2.471 -14.826,-2.647 -25.063,-2.647c-12.531,-0 -25.945,0.176 -36.712,0.353c-0.176,3.706 -0.176,7.413 -0.353,11.119l11.12,0.353Zm20.474,-0.353c1.059,-0.529 3.706,-0.706 8.295,-0.706c13.944,0 24.181,8.825 24.181,23.828c-0,11.119 -7.59,22.592 -25.593,22.592c-3.883,-0 -6.354,-0 -7.236,-0.353l0.353,-45.361Z" style="fill:#094258;fill-rule:nonzero;"/>
    <g id="target--shop-bullseye-arrow-target">
    </g>
    <g id="target--shop-bullseye-arrow-target1" serif:id="target--shop-bullseye-arrow-target">
        <path id="Union" d="M102.697,47.482c0.239,3.442 -2.358,6.427 -5.802,6.666c-8.768,0.609 -17.178,3.721 -24.229,8.968c-7.051,5.247 -12.448,12.407 -15.549,20.629c-3.101,8.223 -3.775,17.163 -1.944,25.757c1.832,8.595 6.093,16.483 12.277,22.729c6.184,6.244 14.031,10.584 22.609,12.5c8.578,1.918 17.527,1.333 25.782,-1.684c8.256,-3.017 15.471,-8.34 20.79,-15.336c5.318,-6.997 8.516,-15.372 9.214,-24.132c0.274,-3.44 3.285,-6.007 6.725,-5.733c3.441,0.274 6.008,3.284 5.734,6.724c-0.887,11.145 -4.956,21.8 -11.722,30.701c-6.766,8.901 -15.946,15.674 -26.449,19.512c-10.503,3.839 -21.888,4.583 -32.801,2.143c-10.913,-2.44 -20.897,-7.959 -28.764,-15.904c-7.868,-7.945 -13.289,-17.981 -15.619,-28.916c-2.33,-10.934 -1.472,-22.308 2.473,-32.769c3.945,-10.461 10.811,-19.57 19.782,-26.245c8.971,-6.675 19.669,-10.635 30.825,-11.41c3.443,-0.239 6.429,2.357 6.668,5.8Zm-5.631,27.918c1.258,3.213 -0.327,6.838 -3.541,8.096c-2.759,1.08 -5.205,2.83 -7.118,5.092c-1.912,2.263 -3.23,4.966 -3.834,7.866c-0.605,2.9 -0.477,5.904 0.372,8.742c0.849,2.838 2.392,5.419 4.49,7.511c2.097,2.092 4.684,3.628 7.524,4.469c2.841,0.842 5.847,0.962 8.746,0.35c2.899,-0.612 5.599,-1.936 7.857,-3.854c2.259,-1.917 4.003,-4.367 5.076,-7.128c1.25,-3.217 4.871,-4.811 8.088,-3.561c3.217,1.249 4.812,4.87 3.562,8.086c-1.825,4.697 -4.793,8.865 -8.634,12.127c-3.842,3.262 -8.436,5.516 -13.368,6.556c-4.931,1.041 -10.044,0.837 -14.877,-0.594c-4.833,-1.432 -9.232,-4.045 -12.801,-7.604c-3.568,-3.558 -6.194,-7.95 -7.638,-12.777c-1.444,-4.828 -1.662,-9.94 -0.633,-14.873c1.028,-4.933 3.27,-9.532 6.523,-13.381c3.254,-3.849 7.415,-6.826 12.108,-8.663c3.214,-1.258 6.84,0.327 8.098,3.54Zm40.312,-30.552c-0.363,-1.456 -1.483,-2.603 -2.929,-3.004c-1.447,-0.4 -2.997,0.008 -4.058,1.069l-16.665,16.661c-1.035,1.035 -1.451,2.536 -1.096,3.956l3.005,12.016l-17.769,17.765c-2.44,2.44 -2.44,6.396 0.001,8.836c2.44,2.44 6.397,2.44 8.837,-0l17.769,-17.765l12.02,3.005c1.419,0.354 2.921,-0.061 3.956,-1.096l16.665,-16.661c1.06,-1.061 1.469,-2.611 1.068,-4.057c-0.4,-1.446 -1.548,-2.565 -3.004,-2.929l-14.239,-3.559l-3.561,-14.237Z" style="fill:#ae2d2e;"/>
    </g>
    <path d="M933.333,50l0,100c0,27.596 -22.404,50 -50,50l-833.333,0c-27.596,0 -50,-22.404 -50,-50l0,-100c0,-27.596 22.404,-50 50,-50l833.333,0c27.596,0 50,22.404 50,50Zm-12.5,0c0,-20.697 -16.803,-37.5 -37.5,-37.5l-833.333,0c-20.697,0 -37.5,16.803 -37.5,37.5l0,100c0,20.697 16.803,37.5 37.5,37.5l833.333,0c20.697,0 37.5,-16.803 37.5,-37.5l0,-100Z" style="fill:#ae2d2e;"/>
    <rect x="93.75" y="150" width="12.5" height="41.667" style="fill:#ae2d2e;"/>
</svg>
