<svg xmlns="http://www.w3.org/2000/svg" xml:space="preserve" preserveAspectRatio="xMinYMin" viewBox="0 0 175 40"><path fill="#005c9d" d="M22.227 8.825a3.281 3.281 0 1 1 .001 6.563 3.281 3.281 0 0 1-.001-6.563m4.899 9.138-.462 6.817-.007.093c-.378-.309-.88-.367-1.368-.279-.872.157-1.714.501-2.582.687-.514.111-1.042.208-1.57.198-.419-.007-.837-.078-1.247-.156-.698-.132-1.394-.287-2.091-.427l-.009-.116-.462-6.817c-.146-2.15 9.944-2.15 9.798 0m-1.988 11.174a8 8 0 0 0-.009.393l.002 2.813a10.7 10.7 0 0 1-3.852.288 12 12 0 0 1-1.971-.351l.013-1.781c.33-.016.66-.001.961.031 1.632.175 3.45-.399 4.856-1.393"/><path fill="#ff9800" d="M29.604 11.908a2.525 2.525 0 1 1 0 5.05 2.525 2.525 0 0 1 0-5.05m3.769 7.029-.356 5.243c-.129 1.898-1.181 1.43-1.181 3.655v.353c-.592.523-1.18 1.051-1.803 1.545-.871.69-1.754 1.279-2.67 1.746a1 1 0 0 1-.016-.168c.006-.334.025-3.166.025-3.476 0-.771-.085-1.236-.21-1.554q.018-.171.01-.339c.098-.329.155-.685.184-1.115l.462-6.817q.007-.094.002-.184c2.258-.353 5.627.017 5.553 1.111"/><path fill="#6bb90d" d="M14.85 11.908a2.524 2.524 0 1 1 .002 5.048 2.524 2.524 0 0 1-.002-5.048m-3.194 13.261c-.106-.221-.187-.522-.218-.989l-.357-5.243c-.073-1.094 3.295-1.465 5.554-1.111q-.006.09.001.184l.459 6.764a10.8 10.8 0 0 0-4.485.276c-.32.087-.639.13-.954.119"/><path fill="#26b1fb" d="M35.918 27.243c-2.749 6.006-8.811 10.18-15.85 10.18-9.742 0-17.423-7.918-17.423-17.423 0-9.622 7.801-17.423 17.423-17.423 7.72 0 14.268 5.022 16.555 11.976v.002c-2.264-5.611-7.761-9.57-14.182-9.57-9.493 0-15.077 6.844-15.077 15.287 0 3.289 2.211 6.478 5.468 5.588 1.331-.363 2.856-.53 4.773-.145 2.939.589 3.329.807 5.279.388.821-.176 1.834-.553 2.554-.682 1.319-.237.969 1.282.3 2.056-1.327 1.535-3.595 2.407-5.367 2.218-4.414-.473-5.629 3.123.824 3.773 8.91.897 12.506-8.134 14.723-6.225"/><path fill="#4d4d4d" d="M41.768 14.767v-.144h.2q.336 0 .48-.216.08-.128.08-.576v-3.424q0-.488-.104-.624-.16-.168-.456-.168h-.2v-.144h2.16a4.8 4.8 0 0 1 1.8.272 2.08 2.08 0 0 1 1 .896 2.8 2.8 0 0 1 .376 1.456 2.64 2.64 0 0 1-.672 1.84q-.752.832-2.296.832zm1.512-.384a4 4 0 0 0 .832.112 2 2 0 0 0 1.504-.64 2.4 2.4 0 0 0 .6-1.728 2.4 2.4 0 0 0-.6-1.728 2 2 0 0 0-1.536-.632 3.2 3.2 0 0 0-.8.112zm4.977-1.848q0 .8.392 1.248a1.2 1.2 0 0 0 .92.456 1.04 1.04 0 0 0 .608-.192 1.36 1.36 0 0 0 .432-.664l.128.08a1.84 1.84 0 0 1-.48.976 1.28 1.28 0 0 1-.992.44 1.44 1.44 0 0 1-1.104-.504 1.92 1.92 0 0 1-.456-1.352q0-.912.472-1.432a1.6 1.6 0 0 1 1.184-.512q.6 0 .984.4a1.44 1.44 0 0 1 .392 1.056zm0-.224h1.656a1.6 1.6 0 0 0-.08-.488.76.76 0 0 0-.696-.464.8.8 0 0 0-.576.248 1.12 1.12 0 0 0-.304.704m6.087-1.12v2.168q0 .616.032.76a.32.32 0 0 0 .096.192.24.24 0 0 0 .152.056q.12 0 .272-.072l.056.136-1.072.448h-.176v-.76a3.2 3.2 0 0 1-.704.632 1.1 1.1 0 0 1-.512.128.8.8 0 0 1-.52-.176.8.8 0 0 1-.312-.448 3.2 3.2 0 0 1-.08-.776v-1.592a.8.8 0 0 0-.056-.352.4.4 0 0 0-.16-.152.8.8 0 0 0-.392-.048v-.144h1.256v2.392q0 .504.168.656t.424.16q.168 0 .384-.112a2.4 2.4 0 0 0 .504-.4v-2.024q0-.312-.112-.416-.112-.112-.464-.112v-.144zm1.904-1.176v1.176h.84v.272h-.84v2.32q0 .344.104.472a.32.32 0 0 0 .256.12q.12 0 .248-.08a.48.48 0 0 0 .184-.24h.152a1.2 1.2 0 0 1-.384.576.8.8 0 0 1-.512.192.8.8 0 0 1-.352-.096.56.56 0 0 1-.256-.288 1.6 1.6 0 0 1-.08-.568v-2.408h-.568v-.128a1.6 1.6 0 0 0 .44-.296 2.4 2.4 0 0 0 .4-.48 8 8 0 0 0 .248-.544zm3.494 1.072v1.216h-.128q-.144-.576-.376-.784a.8.8 0 0 0-.592-.208.8.8 0 0 0-.448.144q-.168.152-.168.32 0 .224.128.376.12.16.496.344l.568.272q.792.392.792 1.024a.96.96 0 0 1-.368.784 1.28 1.28 0 0 1-.824.304 2.4 2.4 0 0 1-.752-.12l-.216-.04q-.08 0-.136.104h-.128v-1.28h.128q.104.552.416.824a1.04 1.04 0 0 0 .696.28q.264 0 .432-.16a.48.48 0 0 0 .176-.384.56.56 0 0 0-.192-.448 3.2 3.2 0 0 0-.752-.464 2.4 2.4 0 0 1-.744-.512.8.8 0 0 1-.176-.56.96.96 0 0 1 .304-.736 1.04 1.04 0 0 1 .784-.296 1.6 1.6 0 0 1 .512.088.8.8 0 0 0 .264.056l.096-.024.08-.12zm3.842 2.32a1.92 1.92 0 0 1-.568 1.088 1.36 1.36 0 0 1-.928.384 1.44 1.44 0 0 1-1.064-.512 2 2 0 0 1-.456-1.384 1.92 1.92 0 0 1 .504-1.376 1.6 1.6 0 0 1 1.208-.52q.528 0 .864.272.336.288.336.584a.32.32 0 0 1-.096.24q-.096.096-.264.088-.232 0-.344-.144-.08-.08-.088-.312a.56.56 0 0 0-.16-.352.56.56 0 0 0-.384-.12.8.8 0 0 0-.624.288 1.6 1.6 0 0 0-.32 1.016q0 .64.32 1.128.312.496.848.496a1.04 1.04 0 0 0 .688-.264 1.6 1.6 0 0 0 .416-.656zm1.566-4.192v2.616a3.2 3.2 0 0 1 .688-.616 1.04 1.04 0 0 1 .504-.128q.304 0 .52.168a.96.96 0 0 1 .328.52 4 4 0 0 1 .072.92v1.264q0 .336.056.464a.32.32 0 0 0 .136.152.8.8 0 0 0 .344.048v.144h-1.76v-.144h.08q.248 0 .352-.072a.5.5 0 0 0 .136-.224l.008-.368v-1.264a3.2 3.2 0 0 0-.056-.768.48.48 0 0 0-.2-.28.56.56 0 0 0-.32-.088.8.8 0 0 0-.392.096 1.6 1.6 0 0 0-.496.416v1.888q0 .376.04.456.032.096.152.152a.8.8 0 0 0 .384.056v.144H63.95v-.144a.8.8 0 0 0 .376-.072q.08-.032.128-.144a1.6 1.6 0 0 0 .048-.448v-3.24a8 8 0 0 0-.032-.752q-.032-.144-.088-.192a.24.24 0 0 0-.168-.048.8.8 0 0 0-.264.056l-.056-.136 1.072-.432zm3.544 3.32q0 .8.392 1.248a1.2 1.2 0 0 0 .92.456 1.04 1.04 0 0 0 .608-.192 1.36 1.36 0 0 0 .432-.664l.128.08a1.84 1.84 0 0 1-.48.976 1.28 1.28 0 0 1-.992.44 1.44 1.44 0 0 1-1.104-.504 1.92 1.92 0 0 1-.456-1.352q0-.912.472-1.432a1.6 1.6 0 0 1 1.184-.512q.6 0 .984.4a1.44 1.44 0 0 1 .392 1.056zm0-.224h1.656a1.6 1.6 0 0 0-.08-.488.76.76 0 0 0-.696-.464.8.8 0 0 0-.576.248 1.12 1.12 0 0 0-.304.704m3.999-1.224v.8q.456-.8.92-.8.216 0 .36.128a.4.4 0 0 1 .136.304.4.4 0 0 1-.096.256.32.32 0 0 1-.248.104q-.136 0-.304-.136-.176-.136-.248-.136t-.152.08a2.4 2.4 0 0 0-.368.528v1.72q0 .288.072.448a.8.8 0 0 0 .184.176.8.8 0 0 0 .368.064v.144h-1.832v-.144q.28 0 .408-.08a.4.4 0 0 0 .136-.2 1.6 1.6 0 0 0 .024-.384v-1.384a8 8 0 0 0-.032-.744.32.32 0 0 0-.088-.176.3.3 0 0 0-.176-.056.8.8 0 0 0-.272.064l-.04-.144 1.088-.432zm5.84 3.536v.144h-2.272v-.144h.184q.336 0 .48-.192.096-.12.096-.6v-3.424a1.6 1.6 0 0 0-.056-.528.32.32 0 0 0-.16-.168.8.8 0 0 0-.36-.096h-.184v-.144h2.272v.144h-.192q-.32 0-.472.192-.104.12-.104.6v3.424q0 .4.056.528.04.096.16.168a.8.8 0 0 0 .36.096zm1.488-2.784q.624-.752 1.2-.752a.8.8 0 0 1 .504.144 1.04 1.04 0 0 1 .336.48q.08.24.08.72v1.528q0 .336.056.464a.32.32 0 0 0 .136.152.8.8 0 0 0 .36.048v.144h-1.776v-.144h.08q.248 0 .344-.072.104-.08.144-.224l.016-.368v-1.464a1.6 1.6 0 0 0-.128-.712q-.136-.216-.432-.216-.456 0-.92.504v1.888q0 .36.04.448.056.112.152.168a.8.8 0 0 0 .384.048v.144h-1.768v-.144h.08q.272 0 .368-.136t.096-.528v-1.328a8 8 0 0 0-.032-.784q-.024-.144-.088-.192a.24.24 0 0 0-.16-.056.8.8 0 0 0-.264.064l-.056-.144 1.08-.432h.168zm3.992-1.824v1.176h.84v.272h-.84v2.32q0 .344.104.472a.32.32 0 0 0 .256.12q.12 0 .248-.08a.48.48 0 0 0 .184-.24h.152a1.2 1.2 0 0 1-.384.576.8.8 0 0 1-.512.192.8.8 0 0 1-.352-.096.56.56 0 0 1-.256-.288 1.6 1.6 0 0 1-.08-.568v-2.408h-.568v-.128a1.6 1.6 0 0 0 .44-.296 2.4 2.4 0 0 0 .4-.48 8 8 0 0 0 .248-.544zm1.783 2.52q0 .8.392 1.248a1.2 1.2 0 0 0 .92.456 1.04 1.04 0 0 0 .608-.192 1.36 1.36 0 0 0 .432-.664l.128.08a1.84 1.84 0 0 1-.48.976 1.28 1.28 0 0 1-.992.44 1.44 1.44 0 0 1-1.104-.504 1.92 1.92 0 0 1-.456-1.352q0-.912.472-1.432a1.6 1.6 0 0 1 1.184-.512q.6 0 .984.4a1.44 1.44 0 0 1 .392 1.056zm0-.224h1.656a1.6 1.6 0 0 0-.08-.488.76.76 0 0 0-.696-.464.8.8 0 0 0-.576.248 1.12 1.12 0 0 0-.304.704m3.999-1.224v.8q.456-.8.92-.8.216 0 .36.128a.4.4 0 0 1 .136.304.4.4 0 0 1-.096.256.32.32 0 0 1-.248.104q-.136 0-.304-.136-.176-.136-.248-.136t-.152.08a2.4 2.4 0 0 0-.368.528v1.72q0 .288.072.448a.8.8 0 0 0 .184.176.8.8 0 0 0 .368.064v.144h-1.832v-.144q.28 0 .408-.08a.4.4 0 0 0 .136-.2 1.6 1.6 0 0 0 .024-.384v-1.384a8 8 0 0 0-.032-.744.32.32 0 0 0-.088-.176.3.3 0 0 0-.176-.056.8.8 0 0 0-.272.064l-.04-.144 1.088-.432zm2.216 1.448q0 .8.392 1.248a1.2 1.2 0 0 0 .92.456 1.04 1.04 0 0 0 .608-.192 1.36 1.36 0 0 0 .432-.664l.128.08a1.84 1.84 0 0 1-.48.976 1.28 1.28 0 0 1-.992.44 1.44 1.44 0 0 1-1.104-.504 1.92 1.92 0 0 1-.456-1.352q0-.912.472-1.432a1.6 1.6 0 0 1 1.184-.512q.6 0 .984.4a1.44 1.44 0 0 1 .392 1.056zm0-.224h1.656a1.6 1.6 0 0 0-.08-.488.76.76 0 0 0-.696-.464.8.8 0 0 0-.576.248 1.12 1.12 0 0 0-.304.704m5.262-1.224v1.216h-.128q-.144-.576-.376-.784a.8.8 0 0 0-.592-.208.8.8 0 0 0-.448.144q-.168.152-.168.32 0 .224.128.376.12.16.496.344l.568.272q.792.392.792 1.024a.96.96 0 0 1-.368.784 1.28 1.28 0 0 1-.824.304 2.4 2.4 0 0 1-.752-.12l-.216-.04q-.08 0-.136.104h-.128v-1.28h.128q.104.552.416.824a1.04 1.04 0 0 0 .696.28q.264 0 .432-.16a.48.48 0 0 0 .176-.384.56.56 0 0 0-.192-.448 3.2 3.2 0 0 0-.752-.464 2.4 2.4 0 0 1-.744-.512.8.8 0 0 1-.176-.56.96.96 0 0 1 .304-.736 1.04 1.04 0 0 1 .784-.296 1.6 1.6 0 0 1 .512.088.8.8 0 0 0 .264.056l.096-.024.08-.12zm3.114 0v1.216h-.128q-.144-.576-.376-.784a.8.8 0 0 0-.592-.208.8.8 0 0 0-.448.144q-.168.152-.168.32 0 .224.128.376.12.16.496.344l.568.272q.792.392.792 1.024a.96.96 0 0 1-.368.784 1.28 1.28 0 0 1-.824.304 2.4 2.4 0 0 1-.752-.12l-.216-.04q-.08 0-.136.104h-.128v-1.28h.128q.104.552.416.824a1.04 1.04 0 0 0 .696.28q.264 0 .432-.16a.48.48 0 0 0 .176-.384.56.56 0 0 0-.192-.448 3.2 3.2 0 0 0-.752-.464 2.4 2.4 0 0 1-.744-.512.8.8 0 0 1-.176-.56.96.96 0 0 1 .304-.736 1.04 1.04 0 0 1 .784-.296 1.6 1.6 0 0 1 .512.088.8.8 0 0 0 .264.056l.096-.024.08-.12zm1.401 1.448q0 .8.392 1.248a1.2 1.2 0 0 0 .92.456 1.04 1.04 0 0 0 .608-.192 1.36 1.36 0 0 0 .432-.664l.128.08a1.84 1.84 0 0 1-.48.976 1.28 1.28 0 0 1-.992.44 1.44 1.44 0 0 1-1.104-.504 1.92 1.92 0 0 1-.456-1.352q0-.912.472-1.432a1.6 1.6 0 0 1 1.184-.512q.6 0 .984.4a1.44 1.44 0 0 1 .392 1.056zm0-.224h1.656a1.6 1.6 0 0 0-.08-.488.76.76 0 0 0-.696-.464.8.8 0 0 0-.576.248 1.12 1.12 0 0 0-.304.704m3.998-.472q.624-.752 1.2-.752a.8.8 0 0 1 .504.144 1.04 1.04 0 0 1 .336.48q.08.24.08.72v1.528q0 .336.056.464a.32.32 0 0 0 .136.152.8.8 0 0 0 .36.048v.144h-1.776v-.144h.08q.248 0 .344-.072.104-.08.144-.224l.016-.368v-1.464a1.6 1.6 0 0 0-.128-.712q-.136-.216-.432-.216-.456 0-.92.504v1.888q0 .36.04.448.056.112.152.168a.8.8 0 0 0 .384.048v.144h-1.768v-.144h.08q.272 0 .368-.136t.096-.528v-1.328a8 8 0 0 0-.032-.784q-.024-.144-.088-.192a.24.24 0 0 0-.16-.056.8.8 0 0 0-.264.064l-.056-.144 1.08-.432h.168zm2.768-.648h1.688v.144h-.112q-.152 0-.232.072a.24.24 0 0 0-.08.2q0 .136.08.328l.832 1.976.84-2.056a.8.8 0 0 0 .088-.328q0-.064-.032-.096a.24.24 0 0 0-.112-.08l-.264-.016v-.144h1.168v.144q-.208.016-.28.08a.8.8 0 0 0-.248.392l-1.272 3.072h-.16l-1.28-3.024a1.6 1.6 0 0 0-.16-.304.8.8 0 0 0-.2-.152.8.8 0 0 0-.264-.064zm4.784 1.344q0 .8.392 1.248a1.2 1.2 0 0 0 .92.456 1.04 1.04 0 0 0 .608-.192 1.36 1.36 0 0 0 .432-.664l.128.08a1.84 1.84 0 0 1-.48.976 1.28 1.28 0 0 1-.992.44 1.44 1.44 0 0 1-1.104-.504 1.92 1.92 0 0 1-.456-1.352q0-.912.472-1.432a1.6 1.6 0 0 1 1.184-.512q.6 0 .984.4a1.44 1.44 0 0 1 .392 1.056zm0-.224h1.656a1.6 1.6 0 0 0-.08-.488.76.76 0 0 0-.696-.464.8.8 0 0 0-.576.248 1.12 1.12 0 0 0-.304.704m4-1.224v.8q.456-.8.92-.8.216 0 .36.128a.4.4 0 0 1 .136.304.4.4 0 0 1-.096.256.32.32 0 0 1-.248.104q-.136 0-.304-.136-.176-.136-.248-.136t-.152.08a2.4 2.4 0 0 0-.368.528v1.72q0 .288.072.448a.8.8 0 0 0 .184.176.8.8 0 0 0 .368.064v.144h-1.832v-.144q.28 0 .408-.08a.4.4 0 0 0 .136-.2 1.6 1.6 0 0 0 .024-.384v-1.384a8 8 0 0 0-.032-.744.32.32 0 0 0-.088-.176.3.3 0 0 0-.176-.056.8.8 0 0 0-.272.064l-.04-.144 1.088-.432zm2.6.72q.52-.72 1.12-.72.552 0 .96.464a1.92 1.92 0 0 1 .408 1.288q0 .96-.632 1.536a1.76 1.76 0 0 1-1.84.392 3.2 3.2 0 0 1-.664-.344v-3.704a8 8 0 0 0-.024-.752q-.032-.144-.096-.192a.24.24 0 0 0-.152-.048.8.8 0 0 0-.28.056l-.048-.136 1.072-.432h.176zm0 .248v2.144a1.6 1.6 0 0 0 .408.296 1.04 1.04 0 0 0 .44.096q.352 0 .664-.392a1.84 1.84 0 0 0 .304-1.136 1.6 1.6 0 0 0-.304-1.056q-.312-.368-.704-.368a.8.8 0 0 0-.408.104 2.4 2.4 0 0 0-.4.312m5.048 2.2a8 8 0 0 1-.696.488.8.8 0 0 1-.448.096.8.8 0 0 1-.608-.248.96.96 0 0 1-.24-.672q0-.264.112-.456a1.6 1.6 0 0 1 .56-.496q.4-.24 1.32-.568v-.144q0-.536-.176-.736a.64.64 0 0 0-.488-.2.56.56 0 0 0-.392.136.4.4 0 0 0-.152.304l.008.224a.4.4 0 0 1-.088.28.32.32 0 0 1-.24.096.32.32 0 0 1-.24-.096.4.4 0 0 1-.088-.28q0-.336.344-.616.344-.288.96-.28.48 0 .784.16.232.12.336.376a2.4 2.4 0 0 1 .072.688v1.216a8 8 0 0 0 .024.624q.016.12.064.152.04.04.104.04l.104-.024a2.4 2.4 0 0 0 .32-.288v.224q-.44.584-.84.584a.4.4 0 0 1-.304-.136q-.112-.136-.112-.448m0-.256v-1.368q-.592.24-.768.336a1.6 1.6 0 0 0-.44.36.8.8 0 0 0-.128.408q0 .288.168.464.168.192.384.192.296 0 .784-.392m2.566-2.16q.624-.752 1.2-.752a.8.8 0 0 1 .504.144 1.04 1.04 0 0 1 .336.48q.08.24.08.72v1.528q0 .336.056.464a.32.32 0 0 0 .136.152.8.8 0 0 0 .36.048v.144h-1.776v-.144h.08q.248 0 .344-.072.104-.08.144-.224l.016-.368v-1.464a1.6 1.6 0 0 0-.128-.712q-.136-.216-.432-.216-.456 0-.92.504v1.888q0 .36.04.448.056.112.152.168a.8.8 0 0 0 .384.048v.144h-1.768v-.144h.08q.272 0 .368-.136t.096-.528v-1.328a8 8 0 0 0-.032-.784q-.024-.144-.088-.192a.24.24 0 0 0-.16-.056.8.8 0 0 0-.264.064l-.056-.144 1.08-.432h.168zm5.48 2.528a1.6 1.6 0 0 1-.512.392 1.6 1.6 0 0 1-.536.12 1.36 1.36 0 0 1-1.024-.496 1.76 1.76 0 0 1-.44-1.256q0-.768.488-1.408a1.52 1.52 0 0 1 1.248-.64q.464 0 .776.304v-.664a8 8 0 0 0-.024-.752q-.04-.144-.096-.192a.24.24 0 0 0-.152-.048.8.8 0 0 0-.272.056l-.056-.136 1.072-.432h.176v4.136q0 .624.024.768a.8.8 0 0 0 .096.192.24.24 0 0 0 .152.056.8.8 0 0 0 .28-.072l.04.136-1.056.448h-.184zm0-.272v-1.848a1.6 1.6 0 0 0-.136-.48.8.8 0 0 0-.312-.336.8.8 0 0 0-.376-.112.8.8 0 0 0-.616.312q-.36.4-.352 1.184 0 .792.344 1.208.336.424.76.424.36 0 .688-.352m6 .272a1.6 1.6 0 0 1-.512.392 1.6 1.6 0 0 1-.536.12 1.36 1.36 0 0 1-1.024-.496 1.76 1.76 0 0 1-.44-1.256q0-.768.488-1.408a1.52 1.52 0 0 1 1.248-.64q.464 0 .776.304v-.664a8 8 0 0 0-.024-.752q-.04-.144-.096-.192a.24.24 0 0 0-.152-.048.8.8 0 0 0-.272.056l-.056-.136 1.072-.432h.176v4.136q0 .624.024.768a.8.8 0 0 0 .096.192.24.24 0 0 0 .152.056.8.8 0 0 0 .28-.072l.04.136-1.056.448h-.184zm0-.272v-1.848a1.6 1.6 0 0 0-.136-.48.8.8 0 0 0-.312-.336.8.8 0 0 0-.376-.112.8.8 0 0 0-.616.312q-.36.4-.352 1.184 0 .792.344 1.208.336.424.76.424.36 0 .688-.352m2.072-1.56q0 .8.392 1.248a1.2 1.2 0 0 0 .92.456 1.04 1.04 0 0 0 .608-.192 1.36 1.36 0 0 0 .432-.664l.128.08a1.84 1.84 0 0 1-.48.976 1.28 1.28 0 0 1-.992.44 1.44 1.44 0 0 1-1.104-.504 1.92 1.92 0 0 1-.456-1.352q0-.912.472-1.432a1.6 1.6 0 0 1 1.184-.512q.6 0 .984.4a1.44 1.44 0 0 1 .392 1.056zm0-.224h1.656a1.6 1.6 0 0 0-.08-.488.76.76 0 0 0-.696-.464.8.8 0 0 0-.576.248 1.12 1.12 0 0 0-.304.704m3.999-1.224v.8q.456-.8.92-.8.216 0 .36.128a.4.4 0 0 1 .136.304.4.4 0 0 1-.096.256.32.32 0 0 1-.248.104q-.136 0-.304-.136-.176-.136-.248-.136t-.152.08a2.4 2.4 0 0 0-.368.528v1.72q0 .288.072.448a.8.8 0 0 0 .184.176.8.8 0 0 0 .368.064v.144h-1.832v-.144q.28 0 .408-.08a.4.4 0 0 0 .136-.2 1.6 1.6 0 0 0 .024-.384v-1.384a8 8 0 0 0-.032-.744.32.32 0 0 0-.088-.176.3.3 0 0 0-.176-.056.8.8 0 0 0-.272.064l-.04-.144 1.088-.432zM45.818 22.629l3.416 3.388a5.6 5.6 0 0 0 1.442 1.148 2.8 2.8 0 0 0 1.176.35v.252h-4.396v-.252q.378 0 .56-.14.182-.126.182-.294a1.4 1.4 0 0 0-.07-.294 2.8 2.8 0 0 0-.42-.476l-3.206-3.178v2.996q0 .7.084.924a.7.7 0 0 0 .294.294 1.4 1.4 0 0 0 .616.168h.322v.252H41.87v-.252h.322q.56 0 .84-.336.14-.21.154-1.05v-5.992a2.8 2.8 0 0 0-.084-.938q-.07-.168-.28-.28a1.4 1.4 0 0 0-.63-.168h-.322v-.252h3.948v.252h-.322a1.4 1.4 0 0 0-.616.154.56.56 0 0 0-.294.336 2.8 2.8 0 0 0-.084.896v2.842l.938-.868q2.03-1.862 2.45-2.492a.84.84 0 0 0 .182-.476.28.28 0 0 0-.14-.266q-.14-.126-.476-.126h-.224v-.252h3.416v.252a2.07 2.07 0 0 0-1.148.378 5.6 5.6 0 0 0-.882.686l-1.386 1.4zm8.514-4.579v8.303a2.8 2.8 0 0 0 .084.784q.084.196.266.28.168.098.658.098v.252h-3.066v-.252a1.4 1.4 0 0 0 .588-.084q.154-.084.252-.294a2.8 2.8 0 0 0 .084-.784v-5.684a14 14 0 0 0-.042-1.302q-.056-.252-.154-.336a.42.42 0 0 0-.28-.084 1.4 1.4 0 0 0-.448.098l-.112-.238 1.862-.756zm2.784 5.811q0 1.4.686 2.184a2.1 2.1 0 0 0 1.61.798 1.82 1.82 0 0 0 1.064-.336 2.4 2.4 0 0 0 .756-1.162l.224.14a3.2 3.2 0 0 1-.84 1.708 2.24 2.24 0 0 1-1.736.77 2.52 2.52 0 0 1-1.932-.882 3.36 3.36 0 0 1-.798-2.366q0-1.596.826-2.506a2.8 2.8 0 0 1 2.072-.896q1.05 0 1.722.7a2.52 2.52 0 0 1 .686 1.848zm0-.392h2.898a2.8 2.8 0 0 0-.14-.854 1.33 1.33 0 0 0-1.218-.812 1.4 1.4 0 0 0-1.008.434 1.96 1.96 0 0 0-.532 1.232m6.759-5.419q.28 0 .49.197t.196.49a.7.7 0 0 1-.196.49.7.7 0 0 1-.49.21.7.7 0 0 1-.49-.21.7.7 0 0 1-.21-.49q0-.28.21-.49a.7.7 0 0 1 .49-.196m.574 3.276v5.026q0 .588.084.784t.252.294a1.4 1.4 0 0 0 .602.084v.252h-3.038v-.252a1.4 1.4 0 0 0 .616-.084.56.56 0 0 0 .252-.294 2.8 2.8 0 0 0 .084-.784v-2.408a14 14 0 0 0-.056-1.33.56.56 0 0 0-.154-.294.42.42 0 0 0-.28-.098 1.4 1.4 0 0 0-.462.112l-.098-.252 1.89-.756zm3.554 1.316q1.092-1.316 2.1-1.316a1.4 1.4 0 0 1 .882.252 1.8 1.8 0 0 1 .588.84q.14.42.14 1.26v2.674q0 .588.098.812a.56.56 0 0 0 .238.266 1.4 1.4 0 0 0 .63.084v.252h-3.108v-.252h.14q.434 0 .602-.126.182-.14.252-.392l.028-.644v-2.562a2.8 2.8 0 0 0-.224-1.246q-.238-.378-.756-.378-.798 0-1.61.882v3.304q0 .63.07.784.098.196.266.294a1.4 1.4 0 0 0 .672.084v.252h-3.094v-.252h.14q.476 0 .644-.238t.168-.924v-2.324a14 14 0 0 0-.056-1.372q-.042-.252-.154-.336a.42.42 0 0 0-.28-.098 1.4 1.4 0 0 0-.462.112l-.098-.252 1.89-.756h.294zm6.846 2.842a2.1 2.1 0 0 1-1.19-1.89q0-.938.7-1.61a2.52 2.52 0 0 1 1.792-.658q.91 0 1.554.434h1.33l.336.014.07.056q.042.056.042.224t-.042.238q0 .042-.07.056l-.336.028h-.812a1.96 1.96 0 0 1 .378 1.26 1.96 1.96 0 0 1-.672 1.498 2.52 2.52 0 0 1-1.792.616 2.8 2.8 0 0 1-.952-.14 1.4 1.4 0 0 0-.406.462 1.4 1.4 0 0 0-.112.322q0 .126.112.224t.448.168l.952.042q1.414.042 1.82.098a1.68 1.68 0 0 1 1.022.476 1.4 1.4 0 0 1 .378.938q0 .77-.728 1.456a3.92 3.92 0 0 1-2.772.994 4.2 4.2 0 0 1-2.24-.602q-.504-.336-.504-.7 0-.168.07-.336a4.2 4.2 0 0 1 .476-.7l.7-.742a2.8 2.8 0 0 1-.504-.378.56.56 0 0 1-.14-.378q0-.238.196-.56a4.2 4.2 0 0 1 .896-.91m1.19-3.836a1.12 1.12 0 0 0-.854.406q-.336.392-.336 1.232 0 1.078.462 1.68a1.12 1.12 0 0 0 .91.448 1.12 1.12 0 0 0 .854-.392q.336-.378.322-1.218a2.8 2.8 0 0 0-.462-1.708 1.12 1.12 0 0 0-.896-.448m-1.26 6.118a4 4 0 0 0-.49.644 1.4 1.4 0 0 0-.154.56q0 .322.392.574.686.42 1.974.42 1.232 0 1.82-.434.588-.42.574-.924a.56.56 0 0 0-.336-.504 5.6 5.6 0 0 0-1.414-.182 28 28 0 0 1-2.366-.154m6.44-3.906q0 1.4.686 2.184a2.1 2.1 0 0 0 1.61.798 1.82 1.82 0 0 0 1.064-.336 2.4 2.4 0 0 0 .756-1.162l.224.14a3.2 3.2 0 0 1-.84 1.708 2.24 2.24 0 0 1-1.736.77 2.52 2.52 0 0 1-1.932-.882 3.36 3.36 0 0 1-.798-2.366q0-1.596.826-2.506a2.8 2.8 0 0 1 2.072-.896q1.05 0 1.722.7a2.52 2.52 0 0 1 .686 1.848zm0-.392h2.898a2.8 2.8 0 0 0-.14-.854 1.33 1.33 0 0 0-1.218-.812 1.4 1.4 0 0 0-1.008.434 1.96 1.96 0 0 0-.532 1.232m6.998-.826q1.092-1.316 2.1-1.316a1.4 1.4 0 0 1 .882.252 1.8 1.8 0 0 1 .588.84q.14.42.14 1.26v2.674q0 .588.098.812a.56.56 0 0 0 .238.266 1.4 1.4 0 0 0 .63.084v.252h-3.108v-.252h.14q.434 0 .602-.126.182-.14.252-.392l.028-.644v-2.562a2.8 2.8 0 0 0-.224-1.246q-.238-.378-.756-.378-.798 0-1.61.882v3.304q0 .63.07.784.098.196.266.294a1.4 1.4 0 0 0 .672.084v.252h-3.094v-.252h.14q.476 0 .644-.238t.168-.924v-2.324a14 14 0 0 0-.056-1.372q-.042-.252-.154-.336a.42.42 0 0 0-.28-.098 1.4 1.4 0 0 0-.462.112l-.098-.252 1.89-.756h.294zm8.232-1.316q1.428 0 2.282 1.078a3.36 3.36 0 0 1 .728 2.114q0 .84-.392 1.708a2.94 2.94 0 0 1-2.688 1.736 2.66 2.66 0 0 1-2.254-1.134 3.5 3.5 0 0 1-.7-2.128q0-.854.42-1.722a2.94 2.94 0 0 1 2.604-1.652m-.21.434a1.4 1.4 0 0 0-.728.224 1.4 1.4 0 0 0-.588.756 4.2 4.2 0 0 0-.224 1.386q0 1.372.532 2.352.546.98 1.442.994a1.4 1.4 0 0 0 1.092-.546q.42-.56.434-1.876a4.2 4.2 0 0 0-.728-2.632 1.4 1.4 0 0 0-1.232-.658m8.19-.434v2.128h-.224q-.252-1.008-.658-1.372a1.4 1.4 0 0 0-1.036-.364 1.4 1.4 0 0 0-.784.252q-.294.266-.294.56 0 .392.224.658.21.28.868.602l.994.476q1.386.686 1.386 1.792a1.68 1.68 0 0 1-.644 1.372 2.24 2.24 0 0 1-1.442.532 4.2 4.2 0 0 1-1.316-.21l-.378-.07q-.14 0-.238.182h-.224v-2.24h.224q.182.966.728 1.442a1.82 1.82 0 0 0 1.218.49q.462 0 .756-.28a.84.84 0 0 0 .308-.672.98.98 0 0 0-.336-.784 5.6 5.6 0 0 0-1.316-.812 4.2 4.2 0 0 1-1.302-.896 1.4 1.4 0 0 1-.308-.98 1.68 1.68 0 0 1 .532-1.288 1.82 1.82 0 0 1 1.372-.518 2.8 2.8 0 0 1 .896.154 1.4 1.4 0 0 0 .462.098l.168-.042.14-.21zm5.448 0v2.128h-.224q-.252-1.008-.658-1.372a1.4 1.4 0 0 0-1.036-.364 1.4 1.4 0 0 0-.784.252q-.294.266-.294.56 0 .392.224.658.21.28.868.602l.994.476q1.386.686 1.386 1.792a1.68 1.68 0 0 1-.644 1.372 2.24 2.24 0 0 1-1.442.532 4.2 4.2 0 0 1-1.316-.21l-.378-.07q-.14 0-.238.182h-.224v-2.24h.224q.182.966.728 1.442a1.82 1.82 0 0 0 1.218.49q.462 0 .756-.28a.84.84 0 0 0 .308-.672.98.98 0 0 0-.336-.784 5.6 5.6 0 0 0-1.316-.812 4.2 4.2 0 0 1-1.302-.896 1.4 1.4 0 0 1-.308-.98 1.68 1.68 0 0 1 .532-1.288 1.82 1.82 0 0 1 1.372-.518 2.8 2.8 0 0 1 .896.154 1.4 1.4 0 0 0 .462.098l.168-.042.14-.21zm2.452 2.534q0 1.4.686 2.184a2.1 2.1 0 0 0 1.61.798 1.82 1.82 0 0 0 1.064-.336 2.4 2.4 0 0 0 .756-1.162l.224.14a3.2 3.2 0 0 1-.84 1.708 2.24 2.24 0 0 1-1.736.77 2.52 2.52 0 0 1-1.932-.882 3.36 3.36 0 0 1-.798-2.366q0-1.596.826-2.506a2.8 2.8 0 0 1 2.072-.896q1.05 0 1.722.7a2.52 2.52 0 0 1 .686 1.848zm0-.392h2.898a2.8 2.8 0 0 0-.14-.854 1.33 1.33 0 0 0-1.218-.812 1.4 1.4 0 0 0-1.008.434 1.96 1.96 0 0 0-.532 1.232m6.999-.826q1.092-1.316 2.1-1.316a1.4 1.4 0 0 1 .882.252 1.8 1.8 0 0 1 .588.84q.14.42.14 1.26v2.674q0 .588.098.812a.56.56 0 0 0 .238.266 1.4 1.4 0 0 0 .63.084v.252h-3.108v-.252h.14q.434 0 .602-.126.182-.14.252-.392l.028-.644v-2.562a2.8 2.8 0 0 0-.224-1.246q-.238-.378-.756-.378-.798 0-1.61.882v3.304q0 .63.07.784.098.196.266.294a1.4 1.4 0 0 0 .672.084v.252h-3.094v-.252h.14q.476 0 .644-.238t.168-.924v-2.324a14 14 0 0 0-.056-1.372q-.042-.252-.154-.336a.42.42 0 0 0-.28-.098 1.4 1.4 0 0 0-.462.112l-.098-.252 1.89-.756h.294zm9.212-1.316v2.128h-.224q-.252-1.008-.658-1.372a1.4 1.4 0 0 0-1.036-.364 1.4 1.4 0 0 0-.784.252q-.294.266-.294.56 0 .392.224.658.21.28.868.602l.994.476q1.386.686 1.386 1.792a1.68 1.68 0 0 1-.644 1.372 2.24 2.24 0 0 1-1.442.532 4.2 4.2 0 0 1-1.316-.21l-.378-.07q-.14 0-.238.182h-.224v-2.24h.224q.182.966.728 1.442a1.82 1.82 0 0 0 1.218.49q.462 0 .756-.28a.84.84 0 0 0 .308-.672.98.98 0 0 0-.336-.784 5.6 5.6 0 0 0-1.316-.812 4.2 4.2 0 0 1-1.302-.896 1.4 1.4 0 0 1-.308-.98 1.68 1.68 0 0 1 .532-1.288 1.82 1.82 0 0 1 1.372-.518 2.8 2.8 0 0 1 .896.154 1.4 1.4 0 0 0 .462.098l.168-.042.14-.21zm6.721 4.06a3.36 3.36 0 0 1-.994 1.904 2.38 2.38 0 0 1-1.624.672 2.52 2.52 0 0 1-1.862-.896 3.5 3.5 0 0 1-.798-2.422 3.36 3.36 0 0 1 .882-2.408 2.8 2.8 0 0 1 2.114-.91q.924 0 1.512.476.588.504.588 1.022a.56.56 0 0 1-.168.42q-.168.168-.462.154-.406 0-.602-.252-.14-.14-.154-.546a.98.98 0 0 0-.28-.616.98.98 0 0 0-.672-.21 1.4 1.4 0 0 0-1.092.504 2.8 2.8 0 0 0-.56 1.778q0 1.12.56 1.974.546.868 1.484.868a1.82 1.82 0 0 0 1.204-.462 2.8 2.8 0 0 0 .728-1.148zm2.742-7.337v4.579a5.6 5.6 0 0 1 1.204-1.078 1.8 1.8 0 0 1 .882-.224q.532 0 .91.294a1.68 1.68 0 0 1 .574.91 7 7 0 0 1 .126 1.61v2.212q0 .588.098.812a.56.56 0 0 0 .238.266 1.4 1.4 0 0 0 .602.084v.252h-3.08v-.252h.14q.434 0 .616-.126a.84.84 0 0 0 .238-.392l.014-.644v-2.212a5.6 5.6 0 0 0-.098-1.344.84.84 0 0 0-.35-.49 1 1 0 0 0-.56-.154 1.4 1.4 0 0 0-.686.168 2.8 2.8 0 0 0-.868.728v3.304q0 .658.07.798.056.168.266.266a1.4 1.4 0 0 0 .672.098v.252h-3.108v-.252a1.4 1.4 0 0 0 .658-.126q.14-.056.224-.252a2.8 2.8 0 0 0 .084-.784v-5.67a14 14 0 0 0-.056-1.316q-.056-.252-.154-.336a.42.42 0 0 0-.294-.084 1.4 1.4 0 0 0-.462.098l-.098-.238 1.876-.756zm8.708 8.821a14 14 0 0 1-1.218.854 1.4 1.4 0 0 1-.784.168 1.4 1.4 0 0 1-1.064-.434 1.68 1.68 0 0 1-.42-1.176q0-.462.196-.798a2.8 2.8 0 0 1 .98-.868q.7-.42 2.31-.994v-.252q0-.938-.308-1.288a1.12 1.12 0 0 0-.854-.35.98.98 0 0 0-.686.238.7.7 0 0 0-.266.532l.014.392a.7.7 0 0 1-.154.49.56.56 0 0 1-.42.168.56.56 0 0 1-.42-.168.7.7 0 0 1-.154-.49q0-.588.602-1.078.602-.504 1.68-.49.84 0 1.372.28.406.21.588.658a4.2 4.2 0 0 1 .126 1.204v2.128a14 14 0 0 0 .042 1.092q.028.21.112.266.07.07.182.07l.182-.042a4 4 0 0 0 .56-.504v.392q-.77 1.022-1.47 1.022a.7.7 0 0 1-.532-.238q-.196-.238-.196-.784m0-.448v-2.394q-1.036.42-1.344.588a2.8 2.8 0 0 0-.77.63 1.4 1.4 0 0 0-.224.714q0 .504.294.812.294.336.672.336.518 0 1.372-.686m5.108-4.424v4.116q0 .882.196 1.106a.84.84 0 0 0 .672.294h.574v.252h-3.738v-.252h.28a1.4 1.4 0 0 0 .49-.126.7.7 0 0 0 .308-.378 2.8 2.8 0 0 0 .084-.896v-4.116h-1.204v-.49h1.204v-.42q0-.924.308-1.582a2.4 2.4 0 0 1 .924-1.05 2.8 2.8 0 0 1 1.386-.392 2.1 2.1 0 0 1 1.316.462q.406.308.406.686 0 .21-.182.392-.182.168-.378.182a1.4 1.4 0 0 1-.336-.112 1.4 1.4 0 0 1-.434-.49 1.4 1.4 0 0 0-.462-.504 1.4 1.4 0 0 0-.476-.126.84.84 0 0 0-.532.168 1 1 0 0 0-.308.518 10 10 0 0 0-.098 1.82v.448h1.61v.49z"/><path fill="#4d4d4d" d="M155.851 19.451v2.058h1.47v.476h-1.47v4.06q0 .602.182.826a.56.56 0 0 0 .448.21q.21 0 .434-.14a.84.84 0 0 0 .322-.42h.266a2.1 2.1 0 0 1-.672 1.008 1.4 1.4 0 0 1-.896.336 1.4 1.4 0 0 1-.616-.168.98.98 0 0 1-.448-.504 2.8 2.8 0 0 1-.14-.994v-4.214h-.994v-.224a2.8 2.8 0 0 0 .77-.518 4.2 4.2 0 0 0 .7-.84 14 14 0 0 0 .434-.952zm3.12 4.41q0 1.4.686 2.184a2.1 2.1 0 0 0 1.61.798 1.82 1.82 0 0 0 1.064-.336 2.4 2.4 0 0 0 .756-1.162l.224.14a3.2 3.2 0 0 1-.84 1.708 2.24 2.24 0 0 1-1.736.77 2.52 2.52 0 0 1-1.932-.882 3.36 3.36 0 0 1-.798-2.366q0-1.596.826-2.506a2.8 2.8 0 0 1 2.072-.896q1.05 0 1.722.7a2.52 2.52 0 0 1 .686 1.848zm0-.392h2.898a2.8 2.8 0 0 0-.14-.854 1.33 1.33 0 0 0-1.218-.812 1.4 1.4 0 0 0-1.008.434 1.96 1.96 0 0 0-.532 1.232m6.997-.826q1.092-1.316 2.1-1.316a1.4 1.4 0 0 1 .882.252 1.8 1.8 0 0 1 .588.84q.14.42.14 1.26v2.674q0 .588.098.812a.56.56 0 0 0 .238.266 1.4 1.4 0 0 0 .63.084v.252h-3.108v-.252h.14q.434 0 .602-.126.182-.14.252-.392l.028-.644v-2.562a2.8 2.8 0 0 0-.224-1.246q-.238-.378-.756-.378-.798 0-1.61.882v3.304q0 .63.07.784.098.196.266.294a1.4 1.4 0 0 0 .672.084v.252h-3.094v-.252h.14q.476 0 .644-.238t.168-.924v-2.324a14 14 0 0 0-.056-1.372q-.042-.252-.154-.336a.42.42 0 0 0-.28-.098 1.4 1.4 0 0 0-.462.112l-.098-.252 1.89-.756h.294z"/></svg>