<svg xmlns="http://www.w3.org/2000/svg" xml:space="preserve" style="fill-rule:evenodd;clip-rule:evenodd;stroke-linejoin:round;stroke-miterlimit:2" viewBox="0 0 24 24" preserveAspectRatio="xMinYMin"><path d="M18.508 12.641a.22.22 0 0 0-.175-.042.2.2 0 0 0-.134.117l-1.561 3.106a.19.19 0 0 0 0 .174c.021.057.068.1.125.117q.587.183 1.127.475a.2.2 0 0 0 .159 0c.054-.014.1-.05.125-.1l1.519-3.04a.18.18 0 0 0 0-.175.2.2 0 0 0-.142-.116 3 3 0 0 1-1.043-.516M13.333 5.846a.21.21 0 0 0-.284.108 3.7 3.7 0 0 1-.626 1.007.21.21 0 0 0 0 .184.2.2 0 0 0 .109.141l4.716 2.407c.054.029.12.029.175 0a.21.21 0 0 0 .117-.133 2.9 2.9 0 0 1 .534-1.041.2.2 0 0 0 .042-.175.23.23 0 0 0-.109-.142zM18.642 10.351c0 .913.753 1.665 1.669 1.665s1.669-.752 1.669-1.665c0-.914-.753-1.666-1.669-1.666s-1.669.752-1.669 1.666M11.38 2.756a2.51 2.51 0 0 0-3.573 0l-.668.658a.2.2 0 0 1-.167.058l-3.247-.466A1.533 1.533 0 0 0 1.98 4.514c0 .406.163.796.452 1.082l6.093 6.087a1.53 1.53 0 0 0 1.123.491 1.533 1.533 0 0 0 1.498-1.823l-.468-3.256a.23.23 0 0 1 .067-.184l.66-.657a2.507 2.507 0 0 0-.025-3.498M9.234 20.343a1.3 1.3 0 0 0-.068.408c0 .69.569 1.258 1.261 1.258h8.094a1.256 1.256 0 0 0 1.181-1.666 5.4 5.4 0 0 0-5.217-3.331 5.4 5.4 0 0 0-5.251 3.331" style="fill:#122774;fill-rule:nonzero"/></svg>
