<svg xmlns="http://www.w3.org/2000/svg" xml:space="preserve" preserveAspectRatio="xMinYMin" style="fill-rule:evenodd;clip-rule:evenodd;stroke-linejoin:round;stroke-miterlimit:2" viewBox="0 0 100 20"><path d="M22.745 9.384c-1.362-.322-2.128-.848-2.306-1.581a1.4 1.4 0 0 1-.034-.287q-.002-.503.499-.945.567-.492 1.513-.615.213-.03.52-.028c.622 0 1.375.171 2.272.513l.396-1.012q-1.517-.596-2.675-.596-.257 0-.698.041c-.801.11-1.478.404-2.04.883q-.882.789-.882 1.752-.002.306.068.561.43 1.735 3.107 2.382c1.348.321 2.115.848 2.306 1.594q.033.193.034.274 0 .525-.533.978c-.404.335-.938.541-1.588.602a4 4 0 0 1-.404.021q-1.006-.001-2.484-.609l-.424.999q1.664.698 2.908.698 1.632 0 2.69-.883.931-.822.93-1.799 0-.267-.061-.534c-.336-1.184-1.369-1.985-3.114-2.409m6 5.434h6.535v-1.109h-5.433v-3.456h4.208V9.158h-4.208V6.113l5.433.007V5.018l-6.535-.007zm14.438-1.622q-.512.503-1.259.513l-2.607.007v-3.552h2.531q.79.002 1.335.527c.342.349.513.76.513 1.245s-.171.911-.513 1.26m-3.866-7.103h2.374q.625 0 1.054.431c.294.294.438.65.438 1.053q.002.615-.438 1.054v-.007a1.46 1.46 0 0 1-1.04.438h-2.388zm3.818 3.414q1.15-.667 1.15-1.93c0-.698-.24-1.293-.726-1.793a2.46 2.46 0 0 0-1.772-.786l-3.579-.007v9.827h3.723l.006-.007a2.82 2.82 0 0 0 2.026-.842 2.8 2.8 0 0 0 .842-2.033c0-1.129-.554-1.936-1.67-2.429m7.417-4.503-4.229 9.813h1.176l3.47-8.013v.001-.001l1.711 3.969h-.003l.471 1.095h.004l1.266 2.949h1.191L51.38 5.004zm10.475 4.38q-2.041-.482-2.306-1.581a1.5 1.5 0 0 1-.034-.287q-.002-.503.5-.945.565-.492 1.512-.615.213-.03.52-.028c.623 0 1.375.171 2.272.513l.397-1.012q-1.518-.596-2.676-.596-.257 0-.698.041-1.199.165-2.039.883-.883.789-.883 1.752-.001.306.069.561.429 1.735 3.106 2.382c1.348.321 2.115.848 2.306 1.594q.033.193.035.274 0 .525-.534.978c-.404.335-.938.541-1.588.602a4 4 0 0 1-.404.021q-1.005-.001-2.484-.609l-.424.999q1.665.698 2.908.698 1.633 0 2.69-.883.933-.822.931-1.799 0-.267-.062-.534c-.335-1.184-1.369-1.985-3.114-2.409m5.07-3.271h3.223v8.705h1.102V6.113h3.223V5.011h-7.548z" style="fill:#442230;fill-rule:nonzero"/><path d="M76.086 5.075h1.102v9.742h-1.102z" style="fill:#442230"/><path d="m83.387 5.004-4.229 9.813h1.176l3.47-8.013 1.711 3.969h-.003l.472 1.095h.003l1.266 2.949h1.191l-4.229-9.813zm14.198 0v7.815l-5.7-7.821h-.986v9.732h1.095V7.003l5.694 7.808h.992V5.004z" style="fill:#442230;fill-rule:nonzero"/><path d="M7.261.3.344 7.218l1.605 1.604 6.917-6.917z" style="fill:#442230"/><path d="m12.631 5.697-6.918 6.917 1.605 1.605 6.917-6.918z" style="fill:#c41e54"/><path d="M7.245 5.665.328 12.583l1.605 1.604L8.85 7.27zm5.329 5.355-6.917 6.918 1.604 1.604 6.918-6.917z" style="fill:#442230"/></svg>