<svg xmlns="http://www.w3.org/2000/svg" xml:space="preserve" preserveAspectRatio="xMinYMin" viewBox="0 0 250 40"><path d="m.519-.264.067-.447h.143L.602 0H.458L.375-.419.293 0H.148L.021-.711h.144l.066.446.084-.446h.121z" style="fill:#122774;fill-rule:nonzero" transform="matrix(32 0 0 32 35.609 32.06)"/><path d="M.264.01Q.157.01.098-.054q-.06-.063-.06-.181v-.042q0-.126.055-.193.054-.068.157-.068.1 0 .149.064.05.063.052.188v.068H.176q.003.059.026.086t.07.027a.16.16 0 0 0 .116-.047l.054.083a.2.2 0 0 1-.073.057.3.3 0 0 1-.105.022M.177-.314h.138v-.013a.15.15 0 0 0-.016-.072Q.285-.423.249-.423t-.053.026a.2.2 0 0 0-.019.083" style="fill:#122774;fill-rule:nonzero" transform="matrix(32 0 0 32 59.094 32.06)"/><path d="M.311-.395.265-.399q-.056 0-.077.05V0H.05v-.528h.13l.004.057q.033-.067.09-.067.024 0 .038.006z" style="fill:#122774;fill-rule:nonzero" transform="matrix(32 0 0 32 74.406 32.06)"/><path d="m.177-.528.004.052a.15.15 0 0 1 .122-.062q.137 0 .14.191V0H.305v-.337a.1.1 0 0 0-.014-.065q-.013-.02-.047-.02-.037 0-.058.038V0H.047v-.528z" style="fill:#122774;fill-rule:nonzero" transform="matrix(32 0 0 32 85.016 32.06)"/><path d="M.264.01Q.157.01.098-.054q-.06-.063-.06-.181v-.042q0-.126.055-.193.054-.068.157-.068.1 0 .149.064.05.063.052.188v.068H.176q.003.059.026.086t.07.027a.16.16 0 0 0 .116-.047l.054.083a.2.2 0 0 1-.073.057.3.3 0 0 1-.105.022M.177-.314h.138v-.013a.15.15 0 0 0-.016-.072Q.285-.423.249-.423t-.053.026a.2.2 0 0 0-.019.083" style="fill:#122774;fill-rule:nonzero" transform="matrix(32 0 0 32 100.766 32.06)"/><path d="M.311-.395.265-.399q-.056 0-.077.05V0H.05v-.528h.13l.004.057q.033-.067.09-.067.024 0 .038.006z" style="fill:#122774;fill-rule:nonzero" transform="matrix(32 0 0 32 116.078 32.06)"/><path d="M.077 0v-.711h.169q.125 0 .193.078a.32.32 0 0 1 .069.219v.119q0 .141-.07.218T.236 0zm.089-.634v.557h.072q.095 0 .137-.054.044-.054.045-.16v-.126q0-.111-.043-.164Q.333-.634.246-.634z" style="fill:#444e65;fill-rule:nonzero" transform="matrix(20 0 0 20 132.219 32.06)"/><path d="M.158 0H.071v-.528h.087zm.007-.668a.06.06 0 0 1-.013.036Q.14-.617.115-.617T.079-.632a.05.05 0 0 1-.013-.036q0-.022.013-.038.012-.015.036-.015.025 0 .037.016.012.015.013.037" style="fill:#444e65;fill-rule:nonzero" transform="matrix(20 0 0 20 143.635 32.06)"/><path d="M.253.01a.2.2 0 0 1-.151-.059Q.049-.108.048-.222v-.064q0-.117.052-.185a.17.17 0 0 1 .144-.067q.093 0 .138.059.047.059.047.184v.057H.134v.012q0 .085.032.123a.11.11 0 0 0 .092.039.2.2 0 0 0 .067-.014.2.2 0 0 0 .055-.046l.045.055Q.368.01.253.01M.244-.464q-.054 0-.08.037a.2.2 0 0 0-.029.115h.208v-.012a.2.2 0 0 0-.027-.108Q.292-.464.244-.464" style="fill:#444e65;fill-rule:nonzero" transform="matrix(20 0 0 20 148.215 32.06)"/><path d="m.146-.528.002.057a.16.16 0 0 1 .129-.067q.14 0 .142.187V0H.333v-.347q0-.063-.021-.088Q.292-.462.25-.461a.1.1 0 0 0-.058.021.15.15 0 0 0-.041.056V0H.064v-.528z" style="fill:#444e65;fill-rule:nonzero" transform="matrix(20 0 0 20 157.58 32.06)"/><path d="M.321-.135A.06.06 0 0 0 .3-.183.3.3 0 0 0 .219-.23a.6.6 0 0 1-.098-.049.2.2 0 0 1-.043-.047.13.13 0 0 1-.014-.062q0-.065.047-.107a.17.17 0 0 1 .12-.043.17.17 0 0 1 .124.045.15.15 0 0 1 .047.115H.316a.1.1 0 0 0-.024-.061.08.08 0 0 0-.061-.025.08.08 0 0 0-.059.02.07.07 0 0 0-.022.053q0 .026.016.042t.076.043a.4.4 0 0 1 .131.073.13.13 0 0 1 .035.091.14.14 0 0 1-.048.111.2.2 0 0 1-.127.041A.2.2 0 0 1 .1-.038a.15.15 0 0 1-.052-.12h.087q.002.045.027.069t.071.025q.044 0 .066-.019a.07.07 0 0 0 .022-.052" style="fill:#444e65;fill-rule:nonzero" transform="matrix(20 0 0 20 167.258 32.06)"/><path d="M.178-.656v.128h.079v.07H.178v.327a.1.1 0 0 0 .01.048q.01.016.035.016a.1.1 0 0 0 .035-.006L.257 0a.2.2 0 0 1-.06.01.09.09 0 0 1-.078-.037.17.17 0 0 1-.027-.103v-.328H.011v-.07h.081v-.128z" style="fill:#444e65;fill-rule:nonzero" transform="matrix(20 0 0 20 176.369 32.06)"/><path d="M.071-.75h.086V0H.071z" style="fill:#444e65;fill-rule:nonzero" transform="matrix(20 0 0 20 182.277 32.06)"/><path d="M.253.01a.2.2 0 0 1-.151-.059Q.049-.108.048-.222v-.064q0-.117.052-.185a.17.17 0 0 1 .144-.067q.093 0 .138.059.047.059.047.184v.057H.134v.012q0 .085.032.123a.11.11 0 0 0 .092.039.2.2 0 0 0 .067-.014.2.2 0 0 0 .055-.046l.045.055Q.368.01.253.01M.244-.464q-.054 0-.08.037a.2.2 0 0 0-.029.115h.208v-.012a.2.2 0 0 0-.027-.108Q.292-.464.244-.464" style="fill:#444e65;fill-rule:nonzero" transform="matrix(20 0 0 20 186.857 32.06)"/><path d="M.158 0H.071v-.528h.087zm.007-.668a.06.06 0 0 1-.013.036Q.14-.617.115-.617T.079-.632a.05.05 0 0 1-.013-.036q0-.022.013-.038.012-.015.036-.015.025 0 .037.016.012.015.013.037" style="fill:#444e65;fill-rule:nonzero" transform="matrix(20 0 0 20 196.223 32.06)"/><path d="M.321-.135A.06.06 0 0 0 .3-.183.3.3 0 0 0 .219-.23a.6.6 0 0 1-.098-.049.2.2 0 0 1-.043-.047.13.13 0 0 1-.014-.062q0-.065.047-.107a.17.17 0 0 1 .12-.043.17.17 0 0 1 .124.045.15.15 0 0 1 .047.115H.316a.1.1 0 0 0-.024-.061.08.08 0 0 0-.061-.025.08.08 0 0 0-.059.02.07.07 0 0 0-.022.053q0 .026.016.042t.076.043a.4.4 0 0 1 .131.073.13.13 0 0 1 .035.091.14.14 0 0 1-.048.111.2.2 0 0 1-.127.041A.2.2 0 0 1 .1-.038a.15.15 0 0 1-.052-.12h.087q.002.045.027.069t.071.025q.044 0 .066-.019a.07.07 0 0 0 .022-.052" style="fill:#444e65;fill-rule:nonzero" transform="matrix(20 0 0 20 200.803 32.06)"/><path d="M.178-.656v.128h.079v.07H.178v.327a.1.1 0 0 0 .01.048q.01.016.035.016a.1.1 0 0 0 .035-.006L.257 0a.2.2 0 0 1-.06.01.09.09 0 0 1-.078-.037.17.17 0 0 1-.027-.103v-.328H.011v-.07h.081v-.128z" style="fill:#444e65;fill-rule:nonzero" transform="matrix(20 0 0 20 209.914 32.06)"/><path d="M.334-.046A.15.15 0 0 1 .208.01.13.13 0 0 1 .1-.04a.24.24 0 0 1-.037-.144v-.344h.086v.338q0 .123.074.123.08 0 .109-.07v-.391h.086V0H.336z" style="fill:#444e65;fill-rule:nonzero" transform="matrix(20 0 0 20 215.822 32.06)"/><path d="m.146-.528.002.057a.16.16 0 0 1 .129-.067q.14 0 .142.187V0H.333v-.347q0-.063-.021-.088Q.292-.462.25-.461a.1.1 0 0 0-.058.021.15.15 0 0 0-.041.056V0H.064v-.528z" style="fill:#444e65;fill-rule:nonzero" transform="matrix(20 0 0 20 225.49 32.06)"/><path d="M.047-.288q0-.123.045-.187a.15.15 0 0 1 .132-.063q.08 0 .122.069l.005-.059h.078v.533q0 .098-.051.151t-.14.052A.2.2 0 0 1 .151.189.2.2 0 0 1 .078.141L.113.082a.17.17 0 0 0 .118.052q.108 0 .111-.117v-.069A.14.14 0 0 1 .223.01a.15.15 0 0 1-.128-.062.3.3 0 0 1-.048-.177zm.087.049a.25.25 0 0 0 .026.131q.026.042.086.042.065 0 .096-.066v-.264Q.309-.461.247-.461q-.06 0-.086.041a.24.24 0 0 0-.027.128z" style="fill:#444e65;fill-rule:nonzero" transform="matrix(20 0 0 20 235.168 32.06)"/><path d="M24.801 21.078a.26.26 0 0 0-.21-.05.25.25 0 0 0-.16.14l-1.87 3.73a.22.22 0 0 0 0 .21c.025.068.081.12.15.14q.702.221 1.35.57a.25.25 0 0 0 .19 0 .23.23 0 0 0 .15-.12l1.82-3.65a.22.22 0 0 0 0-.21.24.24 0 0 0-.17-.14 3.6 3.6 0 0 1-1.25-.62m-6.2-8.16a.25.25 0 0 0-.34.13 4.5 4.5 0 0 1-.75 1.21.25.25 0 0 0 0 .22.24.24 0 0 0 .13.17l5.65 2.89a.22.22 0 0 0 .21 0 .25.25 0 0 0 .14-.16c.127-.455.345-.88.64-1.25a.23.23 0 0 0 .05-.21.27.27 0 0 0-.13-.17zm6.36 5.41c0 1.097.902 2 2 2s2-.903 2-2-.903-2-2-2c-1.098 0-2 .903-2 2m-8.7-9.12a3 3 0 0 0-4.28 0l-.8.79a.23.23 0 0 1-.2.07l-3.89-.56A1.84 1.84 0 0 0 5 11.319c0 .488.195.956.541 1.299l7.3 7.31c.346.376.834.59 1.345.59a1.84 1.84 0 0 0 1.795-2.19l-.56-3.91a.27.27 0 0 1 .08-.22l.79-.79a3.014 3.014 0 0 0-.03-4.2m-2.57 21.12a1.5 1.5 0 0 0-.082.49c0 .828.682 1.51 1.51 1.51h9.697a1.507 1.507 0 0 0 1.415-2 6.46 6.46 0 0 0-6.25-4 6.46 6.46 0 0 0-6.29 4" style="fill:#122774;fill-rule:nonzero"/></svg>