<?xml version="1.0" encoding="UTF-8" standalone="no"?><!DOCTYPE svg PUBLIC "-//W3C//DTD SVG 1.1//EN" "http://www.w3.org/Graphics/SVG/1.1/DTD/svg11.dtd"><svg width="100%" height="100%" viewBox="0 0 250 40" version="1.1" xmlns="http://www.w3.org/2000/svg" xmlns:xlink="http://www.w3.org/1999/xlink" xml:space="preserve" xmlns:serif="http://www.serif.com/" style="fill-rule:evenodd;clip-rule:evenodd;stroke-linejoin:round;stroke-miterlimit:2;"><g transform="matrix(1,0,0,1,-168.487,-198.113)"><g transform="matrix(32,0,0,32,204.096,230.173)"><path d="M0.519,-0.264l0.067,-0.447l0.143,0l-0.127,0.711l-0.144,0l-0.083,-0.419l-0.082,0.419l-0.145,0l-0.127,-0.711l0.144,0l0.066,0.446l0.084,-0.446l0.121,0l0.083,0.447Z" style="fill:#122774;fill-rule:nonzero;"/></g><g transform="matrix(32,0,0,32,227.581,230.173)"><path d="M0.264,0.01c-0.071,-0 -0.127,-0.021 -0.166,-0.064c-0.04,-0.042 -0.06,-0.103 -0.06,-0.181l0,-0.042c0,-0.084 0.018,-0.148 0.055,-0.193c0.036,-0.045 0.088,-0.068 0.157,-0.068c0.066,-0 0.116,0.021 0.149,0.064c0.034,0.042 0.051,0.105 0.052,0.188l-0,0.068l-0.275,0c0.002,0.039 0.01,0.068 0.026,0.086c0.015,0.018 0.039,0.027 0.07,0.027c0.047,0 0.085,-0.016 0.116,-0.047l0.054,0.083c-0.017,0.024 -0.041,0.043 -0.073,0.057c-0.033,0.015 -0.068,0.022 -0.105,0.022Zm-0.087,-0.324l0.138,-0l-0,-0.013c-0.001,-0.032 -0.006,-0.056 -0.016,-0.072c-0.009,-0.016 -0.026,-0.024 -0.05,-0.024c-0.025,-0 -0.042,0.008 -0.053,0.026c-0.011,0.017 -0.017,0.044 -0.019,0.083Z" style="fill:#122774;fill-rule:nonzero;"/></g><g transform="matrix(32,0,0,32,242.893,230.173)"><path d="M0.311,-0.395l-0.046,-0.004c-0.038,0 -0.063,0.017 -0.077,0.05l0,0.349l-0.138,-0l-0,-0.528l0.13,-0l0.004,0.057c0.022,-0.045 0.052,-0.067 0.09,-0.067c0.016,-0 0.029,0.002 0.038,0.006l-0.001,0.137Z" style="fill:#122774;fill-rule:nonzero;"/></g><g transform="matrix(32,0,0,32,253.503,230.173)"><path d="M0.177,-0.528l0.004,0.052c0.031,-0.041 0.072,-0.062 0.122,-0.062c0.091,-0 0.138,0.064 0.14,0.191l0,0.347l-0.138,-0l-0,-0.337c-0,-0.03 -0.005,-0.052 -0.014,-0.065c-0.009,-0.014 -0.024,-0.02 -0.047,-0.02c-0.025,-0 -0.044,0.012 -0.058,0.038l-0,0.384l-0.139,0l-0,-0.528l0.13,-0Z" style="fill:#122774;fill-rule:nonzero;"/></g><g transform="matrix(32,0,0,32,269.253,230.173)"><path d="M0.264,0.01c-0.071,-0 -0.127,-0.021 -0.166,-0.064c-0.04,-0.042 -0.06,-0.103 -0.06,-0.181l0,-0.042c0,-0.084 0.018,-0.148 0.055,-0.193c0.036,-0.045 0.088,-0.068 0.157,-0.068c0.066,-0 0.116,0.021 0.149,0.064c0.034,0.042 0.051,0.105 0.052,0.188l-0,0.068l-0.275,0c0.002,0.039 0.01,0.068 0.026,0.086c0.015,0.018 0.039,0.027 0.07,0.027c0.047,0 0.085,-0.016 0.116,-0.047l0.054,0.083c-0.017,0.024 -0.041,0.043 -0.073,0.057c-0.033,0.015 -0.068,0.022 -0.105,0.022Zm-0.087,-0.324l0.138,-0l-0,-0.013c-0.001,-0.032 -0.006,-0.056 -0.016,-0.072c-0.009,-0.016 -0.026,-0.024 -0.05,-0.024c-0.025,-0 -0.042,0.008 -0.053,0.026c-0.011,0.017 -0.017,0.044 -0.019,0.083Z" style="fill:#122774;fill-rule:nonzero;"/></g><g transform="matrix(32,0,0,32,284.565,230.173)"><path d="M0.311,-0.395l-0.046,-0.004c-0.038,0 -0.063,0.017 -0.077,0.05l0,0.349l-0.138,-0l-0,-0.528l0.13,-0l0.004,0.057c0.022,-0.045 0.052,-0.067 0.09,-0.067c0.016,-0 0.029,0.002 0.038,0.006l-0.001,0.137Z" style="fill:#122774;fill-rule:nonzero;"/></g><g transform="matrix(20,0,0,20,300.706,230.173)"><path d="M0.077,-0l-0,-0.711l0.169,0c0.083,0 0.148,0.026 0.193,0.078c0.046,0.052 0.069,0.125 0.069,0.219l0,0.119c0,0.094 -0.023,0.167 -0.07,0.218c-0.046,0.051 -0.114,0.077 -0.202,0.077l-0.159,0Zm0.089,-0.634l0,0.557l0.072,0c0.063,0 0.109,-0.018 0.137,-0.054c0.029,-0.036 0.044,-0.089 0.045,-0.16l-0,-0.126c-0,-0.074 -0.014,-0.129 -0.043,-0.164c-0.029,-0.035 -0.073,-0.053 -0.131,-0.053l-0.08,0Z" style="fill:#444e65;fill-rule:nonzero;"/></g><g transform="matrix(20,0,0,20,312.122,230.173)"><path d="M0.158,-0l-0.087,-0l0,-0.528l0.087,-0l-0,0.528Zm0.007,-0.668c-0,0.014 -0.005,0.026 -0.013,0.036c-0.008,0.01 -0.02,0.015 -0.037,0.015c-0.016,-0 -0.028,-0.005 -0.036,-0.015c-0.009,-0.01 -0.013,-0.022 -0.013,-0.036c0,-0.015 0.004,-0.027 0.013,-0.038c0.008,-0.01 0.02,-0.015 0.036,-0.015c0.017,0 0.029,0.005 0.037,0.016c0.008,0.01 0.013,0.022 0.013,0.037Z" style="fill:#444e65;fill-rule:nonzero;"/></g><g transform="matrix(20,0,0,20,316.702,230.173)"><path d="M0.253,0.01c-0.065,-0 -0.116,-0.02 -0.151,-0.059c-0.035,-0.039 -0.053,-0.097 -0.054,-0.173l0,-0.064c0,-0.078 0.018,-0.14 0.052,-0.185c0.034,-0.045 0.082,-0.067 0.144,-0.067c0.062,-0 0.108,0.02 0.138,0.059c0.031,0.039 0.047,0.101 0.047,0.184l0,0.057l-0.295,-0l0,0.012c0,0.057 0.011,0.098 0.032,0.123c0.022,0.026 0.052,0.039 0.092,0.039c0.026,0 0.048,-0.005 0.067,-0.014c0.02,-0.01 0.038,-0.025 0.055,-0.046l0.045,0.055c-0.038,0.052 -0.095,0.079 -0.172,0.079Zm-0.009,-0.474c-0.036,0 -0.063,0.012 -0.08,0.037c-0.017,0.025 -0.027,0.063 -0.029,0.115l0.208,-0l-0,-0.012c-0.003,-0.05 -0.012,-0.086 -0.027,-0.108c-0.016,-0.021 -0.04,-0.032 -0.072,-0.032Z" style="fill:#444e65;fill-rule:nonzero;"/></g><g transform="matrix(20,0,0,20,326.067,230.173)"><path d="M0.146,-0.528l0.002,0.057c0.034,-0.045 0.077,-0.067 0.129,-0.067c0.093,-0 0.141,0.062 0.142,0.187l-0,0.351l-0.086,-0l0,-0.347c0,-0.042 -0.007,-0.071 -0.021,-0.088c-0.014,-0.018 -0.034,-0.026 -0.062,-0.026c-0.021,-0 -0.041,0.007 -0.058,0.021c-0.017,0.014 -0.031,0.033 -0.041,0.056l-0,0.384l-0.087,0l0,-0.528l0.082,-0Z" style="fill:#444e65;fill-rule:nonzero;"/></g><g transform="matrix(20,0,0,20,335.745,230.173)"><path d="M0.321,-0.135c0,-0.019 -0.007,-0.035 -0.021,-0.048c-0.014,-0.013 -0.041,-0.029 -0.081,-0.047c-0.046,-0.019 -0.079,-0.036 -0.098,-0.049c-0.019,-0.014 -0.033,-0.03 -0.043,-0.047c-0.009,-0.017 -0.014,-0.038 -0.014,-0.062c-0,-0.043 0.016,-0.079 0.047,-0.107c0.031,-0.029 0.072,-0.043 0.12,-0.043c0.052,-0 0.093,0.015 0.124,0.045c0.032,0.03 0.047,0.068 0.047,0.115l-0.086,0c0,-0.024 -0.008,-0.044 -0.024,-0.061c-0.015,-0.016 -0.036,-0.025 -0.061,-0.025c-0.025,0 -0.045,0.007 -0.059,0.02c-0.015,0.013 -0.022,0.031 -0.022,0.053c-0,0.017 0.005,0.032 0.016,0.042c0.01,0.011 0.036,0.025 0.076,0.043c0.064,0.025 0.108,0.049 0.131,0.073c0.023,0.024 0.035,0.055 0.035,0.091c-0,0.046 -0.016,0.083 -0.048,0.111c-0.031,0.027 -0.074,0.041 -0.127,0.041c-0.055,-0 -0.099,-0.016 -0.133,-0.048c-0.035,-0.031 -0.052,-0.071 -0.052,-0.12l0.087,0c0.001,0.03 0.01,0.053 0.027,0.069c0.017,0.017 0.041,0.025 0.071,0.025c0.029,0 0.051,-0.006 0.066,-0.019c0.015,-0.013 0.022,-0.03 0.022,-0.052Z" style="fill:#444e65;fill-rule:nonzero;"/></g><g transform="matrix(20,0,0,20,344.856,230.173)"><path d="M0.178,-0.656l-0,0.128l0.079,-0l0,0.07l-0.079,-0l-0,0.327c-0,0.021 0.003,0.037 0.01,0.048c0.007,0.01 0.019,0.016 0.035,0.016c0.012,-0 0.023,-0.002 0.035,-0.006l-0.001,0.073c-0.02,0.007 -0.04,0.01 -0.06,0.01c-0.034,-0 -0.06,-0.012 -0.078,-0.037c-0.018,-0.024 -0.027,-0.059 -0.027,-0.103l-0,-0.328l-0.081,-0l0,-0.07l0.081,-0l-0,-0.128l0.086,-0Z" style="fill:#444e65;fill-rule:nonzero;"/></g><g transform="matrix(20,0,0,20,350.764,230.173)"><rect x="0.071" y="-0.75" width="0.086" height="0.75" style="fill:#444e65;fill-rule:nonzero;"/></g><g transform="matrix(20,0,0,20,355.344,230.173)"><path d="M0.253,0.01c-0.065,-0 -0.116,-0.02 -0.151,-0.059c-0.035,-0.039 -0.053,-0.097 -0.054,-0.173l0,-0.064c0,-0.078 0.018,-0.14 0.052,-0.185c0.034,-0.045 0.082,-0.067 0.144,-0.067c0.062,-0 0.108,0.02 0.138,0.059c0.031,0.039 0.047,0.101 0.047,0.184l0,0.057l-0.295,-0l0,0.012c0,0.057 0.011,0.098 0.032,0.123c0.022,0.026 0.052,0.039 0.092,0.039c0.026,0 0.048,-0.005 0.067,-0.014c0.02,-0.01 0.038,-0.025 0.055,-0.046l0.045,0.055c-0.038,0.052 -0.095,0.079 -0.172,0.079Zm-0.009,-0.474c-0.036,0 -0.063,0.012 -0.08,0.037c-0.017,0.025 -0.027,0.063 -0.029,0.115l0.208,-0l-0,-0.012c-0.003,-0.05 -0.012,-0.086 -0.027,-0.108c-0.016,-0.021 -0.04,-0.032 -0.072,-0.032Z" style="fill:#444e65;fill-rule:nonzero;"/></g><g transform="matrix(20,0,0,20,364.71,230.173)"><path d="M0.158,-0l-0.087,-0l0,-0.528l0.087,-0l-0,0.528Zm0.007,-0.668c-0,0.014 -0.005,0.026 -0.013,0.036c-0.008,0.01 -0.02,0.015 -0.037,0.015c-0.016,-0 -0.028,-0.005 -0.036,-0.015c-0.009,-0.01 -0.013,-0.022 -0.013,-0.036c0,-0.015 0.004,-0.027 0.013,-0.038c0.008,-0.01 0.02,-0.015 0.036,-0.015c0.017,0 0.029,0.005 0.037,0.016c0.008,0.01 0.013,0.022 0.013,0.037Z" style="fill:#444e65;fill-rule:nonzero;"/></g><g transform="matrix(20,0,0,20,369.29,230.173)"><path d="M0.321,-0.135c0,-0.019 -0.007,-0.035 -0.021,-0.048c-0.014,-0.013 -0.041,-0.029 -0.081,-0.047c-0.046,-0.019 -0.079,-0.036 -0.098,-0.049c-0.019,-0.014 -0.033,-0.03 -0.043,-0.047c-0.009,-0.017 -0.014,-0.038 -0.014,-0.062c-0,-0.043 0.016,-0.079 0.047,-0.107c0.031,-0.029 0.072,-0.043 0.12,-0.043c0.052,-0 0.093,0.015 0.124,0.045c0.032,0.03 0.047,0.068 0.047,0.115l-0.086,0c0,-0.024 -0.008,-0.044 -0.024,-0.061c-0.015,-0.016 -0.036,-0.025 -0.061,-0.025c-0.025,0 -0.045,0.007 -0.059,0.02c-0.015,0.013 -0.022,0.031 -0.022,0.053c-0,0.017 0.005,0.032 0.016,0.042c0.01,0.011 0.036,0.025 0.076,0.043c0.064,0.025 0.108,0.049 0.131,0.073c0.023,0.024 0.035,0.055 0.035,0.091c-0,0.046 -0.016,0.083 -0.048,0.111c-0.031,0.027 -0.074,0.041 -0.127,0.041c-0.055,-0 -0.099,-0.016 -0.133,-0.048c-0.035,-0.031 -0.052,-0.071 -0.052,-0.12l0.087,0c0.001,0.03 0.01,0.053 0.027,0.069c0.017,0.017 0.041,0.025 0.071,0.025c0.029,0 0.051,-0.006 0.066,-0.019c0.015,-0.013 0.022,-0.03 0.022,-0.052Z" style="fill:#444e65;fill-rule:nonzero;"/></g><g transform="matrix(20,0,0,20,378.401,230.173)"><path d="M0.178,-0.656l-0,0.128l0.079,-0l0,0.07l-0.079,-0l-0,0.327c-0,0.021 0.003,0.037 0.01,0.048c0.007,0.01 0.019,0.016 0.035,0.016c0.012,-0 0.023,-0.002 0.035,-0.006l-0.001,0.073c-0.02,0.007 -0.04,0.01 -0.06,0.01c-0.034,-0 -0.06,-0.012 -0.078,-0.037c-0.018,-0.024 -0.027,-0.059 -0.027,-0.103l-0,-0.328l-0.081,-0l0,-0.07l0.081,-0l-0,-0.128l0.086,-0Z" style="fill:#444e65;fill-rule:nonzero;"/></g><g transform="matrix(20,0,0,20,384.309,230.173)"><path d="M0.334,-0.046c-0.029,0.037 -0.07,0.056 -0.126,0.056c-0.047,-0 -0.083,-0.017 -0.108,-0.05c-0.024,-0.033 -0.037,-0.081 -0.037,-0.144l-0,-0.344l0.086,-0l-0,0.338c-0,0.082 0.025,0.123 0.074,0.123c0.053,0 0.089,-0.023 0.109,-0.07l-0,-0.391l0.086,-0l-0,0.528l-0.082,-0l-0.002,-0.046Z" style="fill:#444e65;fill-rule:nonzero;"/></g><g transform="matrix(20,0,0,20,393.977,230.173)"><path d="M0.146,-0.528l0.002,0.057c0.034,-0.045 0.077,-0.067 0.129,-0.067c0.093,-0 0.141,0.062 0.142,0.187l-0,0.351l-0.086,-0l0,-0.347c0,-0.042 -0.007,-0.071 -0.021,-0.088c-0.014,-0.018 -0.034,-0.026 -0.062,-0.026c-0.021,-0 -0.041,0.007 -0.058,0.021c-0.017,0.014 -0.031,0.033 -0.041,0.056l-0,0.384l-0.087,0l0,-0.528l0.082,-0Z" style="fill:#444e65;fill-rule:nonzero;"/></g><g transform="matrix(20,0,0,20,403.655,230.173)"><path d="M0.047,-0.288c0,-0.082 0.015,-0.145 0.045,-0.187c0.03,-0.042 0.074,-0.063 0.132,-0.063c0.053,-0 0.094,0.023 0.122,0.069l0.005,-0.059l0.078,-0l-0,0.533c-0,0.065 -0.017,0.116 -0.051,0.151c-0.033,0.035 -0.08,0.052 -0.14,0.052c-0.026,0 -0.055,-0.006 -0.087,-0.019c-0.033,-0.013 -0.057,-0.029 -0.073,-0.048l0.035,-0.059c0.036,0.035 0.075,0.052 0.118,0.052c0.072,0 0.109,-0.039 0.111,-0.117l0,-0.069c-0.028,0.041 -0.067,0.062 -0.119,0.062c-0.055,-0 -0.097,-0.021 -0.128,-0.062c-0.03,-0.041 -0.046,-0.1 -0.048,-0.177l0,-0.059Zm0.087,0.049c-0,0.059 0.008,0.103 0.026,0.131c0.017,0.028 0.046,0.042 0.086,0.042c0.043,-0 0.075,-0.022 0.096,-0.066l0,-0.264c-0.022,-0.044 -0.054,-0.065 -0.095,-0.065c-0.04,-0 -0.069,0.013 -0.086,0.041c-0.018,0.028 -0.027,0.071 -0.027,0.128l-0,0.053Z" style="fill:#444e65;fill-rule:nonzero;"/></g></g><g><g><path d="M24.801,21.078c-0.06,-0.046 -0.136,-0.065 -0.21,-0.05c-0.072,0.021 -0.131,0.072 -0.16,0.14l-1.87,3.73c-0.036,0.065 -0.036,0.145 -0,0.21c0.025,0.068 0.081,0.12 0.15,0.14c0.467,0.147 0.919,0.338 1.35,0.57c0.061,0.025 0.129,0.025 0.19,0c0.065,-0.016 0.12,-0.06 0.15,-0.12l1.82,-3.65c0.035,-0.065 0.035,-0.145 -0,-0.21c-0.031,-0.071 -0.094,-0.124 -0.17,-0.14c-0.453,-0.123 -0.878,-0.334 -1.25,-0.62Z" style="fill:#122774;fill-rule:nonzero;"/><path d="M18.601,12.918c-0.034,-0.016 -0.071,-0.025 -0.109,-0.025c-0.101,0 -0.193,0.062 -0.231,0.155c-0.185,0.441 -0.438,0.849 -0.75,1.21c-0.034,0.069 -0.034,0.151 -0,0.22c0.014,0.074 0.062,0.137 0.13,0.17l5.65,2.89c0.065,0.036 0.144,0.036 0.21,0c0.068,-0.03 0.119,-0.088 0.14,-0.16c0.127,-0.455 0.345,-0.88 0.64,-1.25c0.05,-0.057 0.069,-0.136 0.05,-0.21c-0.018,-0.072 -0.065,-0.134 -0.13,-0.17l-5.6,-2.83Z" style="fill:#122774;fill-rule:nonzero;"/><path d="M24.961,18.328c-0,1.097 0.902,2 2,2c1.097,0 2,-0.903 2,-2c-0,-1.097 -0.903,-2 -2,-2c-1.098,0 -2,0.903 -2,2" style="fill:#122774;fill-rule:nonzero;"/><path d="M16.261,9.208c-0.564,-0.574 -1.336,-0.897 -2.14,-0.897c-0.805,-0 -1.577,0.323 -2.14,0.897l-0.8,0.79c-0.052,0.054 -0.126,0.081 -0.2,0.07l-3.89,-0.56c-0.087,-0.012 -0.174,-0.019 -0.261,-0.019c-1.004,0 -1.83,0.826 -1.83,1.83c-0,0.488 0.195,0.956 0.541,1.299l7.3,7.31c0.346,0.376 0.834,0.59 1.345,0.59c1.004,-0 1.83,-0.826 1.83,-1.83c0,-0.121 -0.012,-0.241 -0.035,-0.36l-0.56,-3.91c-0.008,-0.082 0.021,-0.163 0.08,-0.22l0.79,-0.79c1.128,-1.167 1.114,-3.049 -0.03,-4.2Z" style="fill:#122774;fill-rule:nonzero;"/><path d="M13.691,30.328c-0.054,0.158 -0.082,0.323 -0.082,0.49c-0,0.828 0.682,1.51 1.51,1.51c0.001,0 0.001,0 0.002,0l9.68,0c0.005,0 0.01,0 0.015,0c0.823,0 1.5,-0.677 1.5,-1.5c0,-0.17 -0.029,-0.339 -0.085,-0.5c-1.029,-2.512 -3.538,-4.118 -6.25,-4c-2.727,-0.135 -5.257,1.474 -6.29,4Z" style="fill:#122774;fill-rule:nonzero;"/></g></g></svg>